<svg width="128" height="128" viewBox="0 0 128 128" fill="none" xmlns="http://www.w3.org/2000/svg">
<g clip-path="url(#clip0_61_18)">
<path d="M98 0H30C13.4315 0 0 13.4315 0 30V98C0 114.569 13.4315 128 30 128H98C114.569 128 128 114.569 128 98V30C128 13.4315 114.569 0 98 0Z" fill="#00005B"/>
<path d="M52.5784 78.06H32.7384L28.6849 90.6465C28.5784 91.1265 28.1519 91.4465 27.6719 91.3935H17.6449C17.0584 91.3935 16.8984 91.0735 17.0584 90.4335L34.2319 41.2065C34.3919 40.6735 34.5519 40.1935 34.7649 39.5535C34.9784 38.4335 35.0849 37.26 35.0849 36.0865C35.0319 35.82 35.2449 35.5535 35.5114 35.5H49.3249C49.6984 35.5 49.9649 35.66 50.0184 35.9265L69.4849 90.3265C69.6449 90.9135 69.4849 91.18 68.9519 91.18H57.8049C57.4319 91.2335 57.0584 90.9665 56.9519 90.5935L52.5784 77.7935V78.06ZM35.8319 67.4465H49.3784C49.0584 66.3265 48.6314 64.9935 48.1514 63.6065C47.6714 62.1665 47.1914 60.62 46.7114 59.02C46.1784 57.3665 45.6984 55.7665 45.1649 54.1135C44.6314 52.4605 44.1519 50.9135 43.7249 49.3665C43.2984 47.8735 42.9249 46.4865 42.5514 45.2065H42.4449C41.9649 47.5 41.3784 49.7935 40.6314 52.0865C39.8314 54.6465 39.0314 57.3135 38.1784 59.98C37.4849 62.7 36.6314 65.2065 35.8319 67.4465ZM100.898 73.26H83.9919C84.2049 74.9135 84.7384 76.5665 85.6449 78.0065C86.6049 79.4465 87.9384 80.5665 89.5384 81.2065C91.6719 82.1135 94.0184 82.5935 96.3649 82.54C98.2319 82.4865 100.098 82.3265 101.912 81.9535C103.538 81.7407 105.133 81.3286 106.658 80.7265C106.925 80.5135 107.085 80.62 107.085 81.1535V89.3135C107.085 89.5265 107.032 89.74 106.978 89.9535C106.872 90.1135 106.765 90.22 106.605 90.3265C104.899 91.0757 103.108 91.613 101.272 91.9265C98.7771 92.4065 96.2384 92.621 93.6984 92.5665C89.6449 92.5665 86.2319 91.9265 83.4584 90.7C80.8449 89.58 78.5519 87.82 76.7384 85.6335C75.0498 83.5787 73.7977 81.2013 73.0584 78.6465C72.3119 76.14 71.9384 73.5265 71.9384 70.86C71.9384 67.98 72.3649 65.1535 73.2719 62.38C74.1221 59.7095 75.4803 57.2286 77.2719 55.0735C79.0319 52.94 81.2184 51.2335 83.7249 50.0065C86.2319 48.78 89.2184 48.3535 92.6319 48.3535C95.4584 48.3 98.2849 48.8335 100.898 50.0065C103.085 50.9665 105.005 52.4065 106.498 54.2735C107.885 56.0865 109.005 58.1135 109.698 60.3535C110.392 62.4865 110.712 64.6735 110.712 66.86C110.712 68.14 110.658 69.26 110.605 70.2735C110.498 71.2865 110.445 72.0335 110.392 72.5135C110.338 72.8865 110.018 73.2065 109.645 73.2065C109.325 73.2065 108.738 73.26 107.885 73.3135C107.032 73.42 106.018 73.4735 104.792 73.4735C103.565 73.4735 102.285 73.26 100.898 73.26ZM83.9919 65.4735H95.2449C96.6319 65.4735 97.6449 65.4735 98.2849 65.42C98.7119 65.3665 99.1384 65.26 99.5119 64.9935V64.46C99.5136 63.7891 99.4055 63.1225 99.1919 62.4865C98.2319 59.5 95.4049 57.4735 92.2584 57.58C90.811 57.4989 89.371 57.8385 88.1123 58.5578C86.8535 59.277 85.8299 60.3453 85.1649 61.6335C84.5249 62.86 84.1519 64.14 83.9919 65.4735Z" fill="#9999FF"/>
</g>
<defs>
<clipPath id="clip0_61_18">
<rect width="128" height="128" fill="white"/>
</clipPath>
</defs>
</svg>
