<svg width="128" height="128" viewBox="0 0 128 128" fill="none" xmlns="http://www.w3.org/2000/svg">
<rect width="128" height="128" fill="white"/>
<path d="M64.4603 109.748L37.9155 102.378L32 36.0306H97L91.0784 102.368L64.4603 109.748Z" fill="#264DE4"/>
<path d="M86.0088 98.1441L91.069 41.4554H64.5V104.107L86.0088 98.1441Z" fill="#2965F1"/>
<path d="M45.5608 66.0629L46.29 74.2002H64.4997V66.0629H45.5608ZM44.0952 49.5929L44.8349 57.7302H64.4997V49.5929H44.0952ZM64.4997 87.1964L64.4641 87.2058L55.4016 84.7588L54.8222 78.269H46.6536L47.7935 91.0458L64.4623 95.6728L64.4997 95.6626V87.1964Z" fill="#EBEBEB"/>
<path d="M47.2974 18H57.1527V22.1215H51.4189V26.243H57.1532V30.3643H47.2974V18ZM59.124 18H68.9797V21.5839H63.2456V22.3006H68.9797V30.5437H59.1243V26.7801H64.8584V26.0634H59.1238L59.124 18ZM70.951 18H80.8066V21.5839H75.0725V22.3006H80.8066V30.5437H70.951V26.7801H76.6851V26.0634H70.9512L70.951 18Z" fill="black"/>
<path d="M83.3869 66.0629L84.8558 49.5929H64.4719V57.7302H75.9381L75.1977 66.0629H64.4719V74.2002H74.4921L73.5474 84.7537L64.4717 87.2033V95.669L81.1537 91.0458L81.276 89.6709L83.1885 68.248L83.3869 66.0629Z" fill="white"/>
</svg>
