<svg width="128" height="128" viewBox="0 0 128 128" fill="none" xmlns="http://www.w3.org/2000/svg">
<g clip-path="url(#clip0_61_22)">
<path d="M98 0H30C13.4315 0 0 13.4315 0 30V98C0 114.569 13.4315 128 30 128H98C114.569 128 128 114.569 128 98V30C128 13.4315 114.569 0 98 0Z" fill="#242938"/>
<mask id="mask0_61_22" style="mask-type:luminance" maskUnits="userSpaceOnUse" x="30" y="14" width="68" height="100">
<path d="M30.5 14H97.18V114H30.5V14Z" fill="white"/>
</mask>
<g mask="url(#mask0_61_22)">
<path d="M47.1733 114C56.3733 114 63.8398 106.534 63.8398 97.3335V80.6665H47.1733C37.9733 80.6665 30.5063 88.1335 30.5063 97.3335C30.5063 106.534 37.9733 114 47.1733 114Z" fill="#0ACF83"/>
<path d="M30.5063 64C30.5063 54.8 37.9733 47.3335 47.1733 47.3335H63.8398V80.6665H47.1733C37.9733 80.6665 30.5063 73.2 30.5063 64Z" fill="#A259FF"/>
<path d="M30.5063 30.6665C30.5063 21.4665 37.9733 14 47.1733 14H63.8398V47.3335H47.1733C37.9733 47.3335 30.5063 39.8665 30.5063 30.6665Z" fill="#F24E1E"/>
<path d="M63.8398 14H80.5063C89.7063 14 97.1733 21.4665 97.1733 30.6665C97.1733 39.8665 89.7063 47.3335 80.5063 47.3335H63.8398V14Z" fill="#FF7262"/>
<path d="M97.1733 64C97.1733 73.2 89.7063 80.6665 80.5063 80.6665C71.3063 80.6665 63.8398 73.2 63.8398 64C63.8398 54.8 71.3063 47.3335 80.5063 47.3335C89.7063 47.3335 97.1733 54.8 97.1733 64Z" fill="#1ABCFE"/>
</g>
</g>
<defs>
<clipPath id="clip0_61_22">
<rect width="128" height="128" fill="white"/>
</clipPath>
</defs>
</svg>
