<svg width="128" height="128" viewBox="0 0 128 128" fill="none" xmlns="http://www.w3.org/2000/svg">
<rect width="128" height="128" fill="white"/>
<path d="M96.2075 35.9062L90.267 102.456L63.5639 109.859L36.9344 102.466L31 35.9062H96.2075Z" fill="#E44D26"/>
<path d="M63.604 104.2L85.1815 98.2181L90.2578 41.3484H63.604V104.2Z" fill="#F16529"/>
<path d="M52.0552 57.6752H63.6034V49.512H43.1338L43.3291 51.702L45.3356 74.1978H63.6034V66.0346H52.8013L52.0552 57.6752ZM53.895 78.2796H45.7003L46.8439 91.0972L63.5659 95.739L63.6034 95.7288V87.2355L63.5677 87.245L54.4763 84.7901L53.895 78.2796Z" fill="#EBEBEB"/>
<path d="M37.0669 17.8181H41.2154V21.9167H45.0103V17.8181H49.1591V30.2298H45.0106V26.0737H41.2156V30.2298H37.0671L37.0669 17.8181ZM54.6142 21.9341H50.9626V17.8181H62.4173V21.9341H58.7635V30.2298H54.615V21.9341H54.6142ZM64.2352 17.8181H68.5608L71.2217 22.1793L73.88 17.8181H78.2074V30.2298H74.0758V24.0779L71.2217 28.4909H71.1501L68.2942 24.0779V30.2298H64.2352V17.8181ZM80.2719 17.8181H84.4216V26.1273H90.2556V30.2298H80.2716L80.2719 17.8181Z" fill="black"/>
<path d="M63.5759 74.1978H73.6281L72.6804 84.785L63.5757 87.2424V95.7352L80.3109 91.0972L80.4336 89.7179L82.3522 68.2266L82.5513 66.0346H63.5759V74.1978ZM63.5759 57.6553V57.6752H83.2941L83.4577 55.8405L83.8299 51.702L84.0249 49.512H63.5759V57.6553Z" fill="white"/>
</svg>
