<svg width="128" height="128" viewBox="0 0 128 128" fill="none" xmlns="http://www.w3.org/2000/svg">
<g clip-path="url(#clip0_61_8)">
<path d="M22.7 1.59998H105.4C117.9 1.59998 128.1 11.7 128.1 24.3V103.8C128.1 116.3 118 126.5 105.4 126.5H22.7C10.1 126.4 0 116.3 0 103.7V24.3C0 11.7 10.1 1.59998 22.7 1.59998Z" fill="#330000"/>
<path d="M61.9 76.3001H42L38 88.8001C37.9 89.3001 37.5 89.6 37 89.5H27C26.4 89.5 26.3 89.2 26.4 88.5L43.6 39.1C43.8 38.6 43.9 38 44.1 37.3C44.3 36.2 44.4 35 44.4 33.8C44.3 33.5 44.6 33.3001 44.8 33.2001H58.6C59 33.2001 59.2 33.4 59.3 33.6L78.8 88.5C79 89.1 78.8 89.4001 78.3 89.4001H67.1C66.7 89.5001 66.4 89.2001 66.2 88.8001L61.9 76.3001ZM45.1 65.4001H58.6C58.3 64.3001 57.9 62.9 57.4 61.6C56.9 60.2 56.4 58.6 56 57C55.5 55.3 55 53.7 54.5 52.1C54 50.4 53.5 48.9001 53.1 47.4001C52.7 45.9001 52.3 44.5001 51.9 43.2001H51.8C51.3 45.5001 50.7 47.8 50 50.1C49.2 52.7 48.4 55.3 47.5 58C46.7 60.7 45.9 63.2001 45.1 65.4001ZM90.7 42.7001C88.9 42.8001 87.2 42.1 86 40.8C84.8 39.5 84.1 37.7001 84.2 35.9001C84.1 34.1001 84.8 32.4001 86.1 31.2001C87.4 30.0001 89.1 29.3 90.8 29.3C92.9 29.3 94.5 29.9001 95.7 31.2001C96.9 32.5001 97.5 34.2001 97.5 35.9001C97.6 37.7001 96.9 39.5 95.6 40.8C94.3 42.1 92.5 42.8001 90.7 42.7001ZM84.7 89V47.9001C84.7 47.4001 84.9 47.2001 85.4 47.2001H96C96.5 47.2001 96.7 47.5001 96.7 47.9001V89C96.7 89.6 96.5 89.9001 96 89.9001H85.5C85 89.8001 84.7 89.5 84.7 89Z" fill="#FF9A00"/>
</g>
<defs>
<clipPath id="clip0_61_8">
<rect width="128" height="128" fill="white"/>
</clipPath>
</defs>
</svg>
