<svg width="128" height="128" viewBox="0 0 128 128" fill="none" xmlns="http://www.w3.org/2000/svg">
<rect width="128" height="128" fill="white"/>
<path d="M107.898 44.4016C107.876 44.3186 107.835 44.2467 107.805 44.1665C107.753 44.0173 107.689 43.8729 107.612 43.7349C107.476 43.5362 107.327 43.3468 107.167 43.1677C107.09 43.0967 107.009 43.0302 106.925 42.9685C106.852 42.9017 106.776 42.8389 106.696 42.7804L106.576 42.725L106.479 42.6586L89.9793 34.3586C89.5976 34.1667 89.1767 34.0668 88.75 34.0668C88.3233 34.0668 87.9024 34.1667 87.5207 34.3586L71.0207 42.6586L70.9245 42.725L70.8035 42.7804C70.7241 42.8389 70.6479 42.9017 70.5753 42.9685C70.3717 43.1098 70.1971 43.2892 70.061 43.4969C69.9981 43.573 69.9394 43.6525 69.885 43.7349C69.8096 43.873 69.7462 44.0174 69.6952 44.1665C69.6677 44.2467 69.6238 44.3186 69.6018 44.4016C69.5353 44.6403 69.5011 44.8869 69.5 45.1348V60.0251L58.5 65.5585V34.0681C58.4989 33.8202 58.4647 33.5736 58.3983 33.3349C58.3763 33.2519 58.335 33.1799 58.3047 33.0997C58.2529 32.9506 58.1885 32.8062 58.1123 32.6681C58.0587 32.5858 58.0009 32.5063 57.939 32.4302C57.8029 32.2224 57.6283 32.043 57.4248 31.9017C57.3521 31.835 57.2759 31.7722 57.1965 31.7136L57.0755 31.6583L56.9792 31.5919L40.4793 23.2918C40.0976 23.0999 39.6767 23 39.25 23C38.8233 23 38.4024 23.0999 38.0207 23.2918L21.5207 31.5919L21.4245 31.6583L21.3035 31.7136C21.2241 31.7722 21.1479 31.835 21.0753 31.9017C20.9909 31.9635 20.9101 32.03 20.8333 32.1009C20.7332 32.2033 20.6413 32.3134 20.5582 32.4302C20.4963 32.5063 20.4385 32.5858 20.385 32.6681C20.3096 32.8063 20.2462 32.9507 20.1953 33.0997C20.1678 33.1799 20.1238 33.2519 20.1018 33.3349C20.0353 33.5736 20.0011 33.8202 20 34.0681V86.6352C20.0003 87.1488 20.1427 87.6523 20.4113 88.0891C20.6799 88.526 21.064 88.879 21.5207 89.1086L38.0207 97.4087L54.5208 105.709C54.5593 105.728 54.6032 105.723 54.6472 105.739C54.9898 105.911 55.3673 106 55.75 106C56.1327 106 56.5102 105.911 56.8528 105.739C56.894 105.723 56.9407 105.728 56.9792 105.712L89.9793 89.1114C90.4364 88.8815 90.8208 88.5281 91.0895 88.0907C91.3581 87.6534 91.5002 87.1493 91.5 86.6352V71.7448L106.479 64.2084C106.936 63.9788 107.32 63.6258 107.589 63.1889C107.857 62.7521 108 62.2486 108 61.735V45.1348C107.999 44.8869 107.965 44.6403 107.898 44.4016ZM45.399 78.3351L56.9792 72.5085H56.982L72.25 64.8281L82.601 70.035L55.75 83.542L45.399 78.3351ZM86 55.1447V65.5585L75 60.0251V49.6113L86 55.1447ZM88.75 39.9279L99.101 45.1348L88.75 50.3417L78.399 45.1348L88.75 39.9279ZM42 73.8586V44.0779L53 38.5446V68.3252L42 73.8586ZM39.25 28.8611L49.601 34.0681L39.25 39.275L28.899 34.0681L39.25 28.8611ZM25.5 38.5446L36.5 44.0779V90.4587L25.5 84.9254V38.5446ZM42 82.8116L53 88.345V98.7588L42 93.2254V82.8116ZM86 84.9254L58.5 98.7588V88.345L86 74.5115V84.9254ZM102.5 60.0251L91.5 65.5585V55.1447L102.5 49.6113V60.0251Z" fill="#FF5252"/>
</svg>
