<svg width="128" height="128" viewBox="0 0 128 128" fill="none" xmlns="http://www.w3.org/2000/svg">
<rect width="128" height="128" fill="#0F1214"/>
<path d="M97.7589 79.362C98.1642 79.1214 98.5032 78.7832 98.745 78.378C98.9767 77.966 99.1017 77.5024 99.1088 77.0296L99.1573 61.4075C99.1644 60.9347 99.2894 60.4711 99.521 60.0591C99.764 59.6535 100.104 59.3152 100.511 59.0751L108.958 54.2039C109.37 53.9746 109.833 53.8521 110.304 53.8475C110.776 53.8546 111.239 53.9799 111.65 54.212C112.055 54.4526 112.394 54.7908 112.636 55.1959C112.866 55.6083 112.99 56.0719 112.996 56.5443V84.9459C112.994 85.4206 112.869 85.8866 112.631 86.2973C112.393 86.708 112.052 87.0491 111.642 87.2864L79.7411 105.646C79.3333 105.878 78.8724 106 78.4033 106C77.9343 106 77.4733 105.878 77.0655 105.646L52.0315 91.3033C51.6193 91.067 51.2764 90.7262 51.0372 90.3153C50.7992 89.9029 50.6738 89.4351 50.6735 88.9588V74.6365C50.6762 74.6176 50.6869 74.6122 50.7058 74.6203C50.7327 74.6284 50.7435 74.6216 50.7381 74.6V74.5838C50.7381 74.573 50.7435 74.5636 50.7543 74.5555L71.3749 62.6911C71.391 62.679 71.383 62.6506 71.3627 62.6506L71.3466 62.6425L71.3425 62.6263L71.383 48.5875C71.3836 48.1122 71.2596 47.6451 71.0234 47.233C70.7872 46.8208 70.4471 46.478 70.0371 46.2389C69.6269 46.0031 69.1622 45.879 68.6892 45.879C68.2162 45.879 67.7515 46.0031 67.3413 46.2389L52.0193 55.0906C51.6101 55.325 51.1469 55.4483 50.6755 55.4483C50.2041 55.4483 49.7409 55.325 49.3316 55.0906L33.9571 46.2227C33.5477 45.9873 33.0837 45.8637 32.6116 45.8644C32.1395 45.865 31.6758 45.9899 31.267 46.2265C30.8582 46.463 30.5185 46.803 30.2821 47.2124C30.0456 47.6218 29.9206 48.0862 29.9195 48.5592V73.936C29.9184 74.4088 29.7941 74.8731 29.5587 75.2829C29.3233 75.6928 28.9852 76.0339 28.5777 76.2724C28.1676 76.5038 27.7064 76.6291 27.2358 76.6368C26.7646 76.6322 26.302 76.5097 25.89 76.2805L17.358 71.393C16.9458 71.1567 16.603 70.816 16.3638 70.405C16.1251 69.9915 15.9996 69.5221 16 69.0444L16.0768 24.6928C16.0783 24.2204 16.2034 23.7566 16.4396 23.3478C16.6759 22.939 17.0151 22.5994 17.4233 22.363C17.8315 22.1265 18.2944 22.0015 18.7659 22.0003C19.2374 21.9991 19.701 22.1219 20.1104 22.3563L49.3316 39.173C49.7409 39.4073 50.2041 39.5306 50.6755 39.5306C51.1469 39.5306 51.6101 39.4073 52.0193 39.173L81.2325 22.3563C81.6445 22.1271 82.1071 22.0046 82.5784 22C83.0503 22.0071 83.513 22.1324 83.9242 22.3644C84.3301 22.6062 84.6691 22.9458 84.9104 23.3525C85.1392 23.7652 85.2615 24.2287 85.2661 24.7009V69.0647C85.2661 69.5384 85.1448 70.0041 84.9064 70.4171C84.6683 70.8276 84.3268 71.1683 83.9162 71.4052L68.6185 80.2326C68.2073 80.4706 67.8658 80.8127 67.6282 81.2246C67.3923 81.6362 67.2683 82.1025 67.2685 82.5771C67.2695 83.052 67.395 83.5184 67.6323 83.9296C67.8726 84.3411 68.2169 84.6818 68.6306 84.9176L77.0696 89.7322C77.4783 89.958 77.9365 90.0791 78.4033 90.0844C78.8736 90.0779 79.3347 89.9541 79.7452 89.7241L97.7589 79.362ZM99.5291 39.5657C99.5294 40.0421 99.6549 40.5099 99.8929 40.9222C100.134 41.3343 100.48 41.6751 100.895 41.9103C101.31 42.1435 101.778 42.2633 102.253 42.2576C102.729 42.2519 103.194 42.1209 103.603 41.8779L111.69 37.0187C112.086 36.7745 112.414 36.4365 112.648 36.0348C112.873 35.6264 112.994 35.1689 113 34.7026V24.8061C112.998 24.3295 112.872 23.8616 112.632 23.4496C112.391 23.0387 112.045 22.6989 111.631 22.4643C111.217 22.2297 110.748 22.1086 110.272 22.1134C109.796 22.1193 109.331 22.2506 108.922 22.494L100.839 27.3531C100.442 27.5969 100.112 27.9349 99.8767 28.3371C99.6533 28.7458 99.5339 29.2034 99.5291 29.6693V39.5657Z" fill="#3399FF"/>
</svg>
