<svg width="128" height="128" viewBox="0 0 128 128" fill="none" xmlns="http://www.w3.org/2000/svg">
<rect width="128" height="128" rx="25" fill="white"/>
<path d="M41.4254 76.0283L44.738 86.7766C45.4823 89.2169 45.7927 90.9205 45.6684 91.8915C47.4801 87.0393 48.746 81.7516 49.4661 76.0283H53.4493C51.7364 85.3459 49.4778 92.1165 46.6736 96.3403C44.4889 99.5952 42.0956 101.223 39.4894 101.223C38.7945 101.223 37.9379 101.013 36.9213 100.596V98.3498C37.418 98.4226 38.0007 98.4615 38.6708 98.4615C39.8864 98.4612 40.8669 98.1247 41.6121 97.452C42.5048 96.6326 42.9516 95.7116 42.9516 94.6908C42.9516 93.9938 42.6031 92.5634 41.9093 90.3995L37.2939 76.0283H41.4254ZM16.0729 69.4221L22.1403 87.9343H22.1777L28.2824 69.4221H33.27C34.3621 78.6028 35.0072 87.0029 35.2052 94.6169H31.0002C30.852 87.4995 30.4427 80.8063 29.7722 74.537H29.7356L23.3322 94.6169H20.1299L13.7654 74.537H13.7279C13.256 80.5579 12.9582 87.2512 12.8346 94.6169H9C9.24781 85.6585 9.86796 77.261 10.8605 69.4221H16.0729Z" fill="#00758F"/>
<path d="M84.0442 69.0481C90.5708 69.0481 93.8342 73.2177 93.8342 81.5531C93.8342 86.0825 92.8527 89.5039 90.8918 91.8153C90.5384 92.2376 90.1477 92.6025 89.7364 92.9406L94.3551 95.2243L94.3506 95.2241L92.7107 98.056L86.6959 94.5465C85.6987 94.8417 84.6023 94.9893 83.4065 94.9893C80.2019 94.9893 77.8082 94.0553 76.2255 92.1897C74.4883 90.126 73.6202 86.877 73.6202 82.4485C73.6202 77.9446 74.5999 74.5362 76.5615 72.2218C78.348 70.1049 80.8427 69.0481 84.0442 69.0481ZM64.0579 69.0845C66.3906 69.0845 68.5116 69.7087 70.4221 70.9526L69.4518 73.1149C67.817 72.42 66.2052 72.0711 64.6157 72.0711C63.326 72.0711 62.3322 72.3815 61.6395 73.0061C60.9429 73.6252 60.512 74.4219 60.512 75.3931C60.512 76.8854 61.5752 78.1796 63.5383 79.273C64.1814 79.6245 64.8223 79.9802 65.4609 80.3398L65.6074 80.4222L65.6808 80.4635L65.8275 80.5459L65.9007 80.5872L66.0472 80.6698C67.5332 81.5075 68.9314 82.3071 68.9314 82.3071C70.8943 83.7005 71.8727 85.1861 71.8727 87.6328C71.8727 89.7696 71.0897 91.5236 69.5288 92.8961C67.9668 94.2625 65.8684 94.9475 63.2404 94.9475C60.7826 94.9475 58.4006 94.159 56.0933 92.5951L57.1726 90.4308C59.1583 91.4261 60.9551 91.9232 62.5686 91.9232C64.0818 91.9232 65.2663 91.5854 66.1232 90.9182C66.9784 90.2461 67.4908 89.3087 67.4908 88.1201C67.4908 86.6241 66.4502 85.3453 64.5412 84.2725C63.9437 83.9424 63.3479 83.6091 62.754 83.2726L62.6077 83.1898C62.3391 83.038 62.0685 82.8843 61.8034 82.7338L61.6597 82.652C60.3707 81.9188 59.2562 81.2782 59.2562 81.2782C57.3478 79.8823 56.3909 78.3846 56.3909 75.9168C56.3909 73.8758 57.1045 72.2261 58.5296 70.9711C59.9582 69.7133 61.801 69.0845 64.0579 69.0845ZM101.504 69.4217V91.5172H109.432V94.6165H97.4838V69.4219L101.504 69.4217ZM113.837 91.5268V92.0505H112.966V94.6137H112.299V92.0505H111.394V91.5268H113.837ZM115.447 91.5268L116.284 93.631L117.052 91.5268H117.997V94.6137H117.369V92.2645L116.494 94.6137H116.041L115.165 92.2645H115.131V94.6137H114.537V91.5268H115.447ZM83.6337 72.1465C79.7876 72.1465 77.8635 75.3207 77.8635 81.6648C77.8635 85.2989 78.3734 87.9341 79.3912 89.5765C80.3339 91.0966 81.8103 91.8551 83.8206 91.8551C87.6667 91.8551 89.5906 88.6562 89.5906 82.2614C89.5906 78.6782 89.0807 76.0656 88.0642 74.4223C87.1204 72.9056 85.6447 72.1465 83.6339 72.1465" fill="#F29111"/>
<path d="M73.5525 28.5611C74.8283 25.4261 79.2895 27.8003 81.0207 28.8954C81.445 29.1694 81.9317 29.7482 82.4181 29.9622C83.1771 29.992 83.9354 30.0514 84.6956 30.0831C86.1216 30.4182 87.4572 30.692 88.5809 31.3319C93.8027 34.4071 97.2019 37.5409 100.33 42.7171C100.999 43.8135 101.333 45 101.879 46.1864C102.637 47.9549 103.488 49.8113 104.368 51.4836C104.762 52.2764 105.067 53.1579 105.613 53.8275C105.827 54.1336 106.433 54.2239 106.796 54.4068C107.798 54.9256 109.013 55.3194 109.955 55.9283C111.716 57.026 113.418 58.334 114.965 59.673C115.542 60.1899 115.935 60.9217 116.484 61.4684V61.7443C115.997 61.8939 115.511 62.0472 115.024 62.17C113.962 62.443 113.02 62.3812 111.99 62.6544C111.353 62.8392 110.562 63.0829 109.894 63.1449L109.955 63.207C110.348 64.33 112.475 65.2433 113.447 65.915C114.628 66.7674 115.723 67.8012 116.604 68.9885C116.908 69.2915 117.212 69.5672 117.515 69.8693C117.727 70.1754 117.786 70.5714 118 70.8443V70.9367C117.763 70.853 117.593 70.6933 117.431 70.5264L117.335 70.4257C117.238 70.3257 117.141 70.2273 117.03 70.1462C116.36 69.6885 115.694 69.141 115.024 68.7154C113.872 67.9843 112.536 67.56 111.353 66.8262C110.684 66.4002 110.046 65.915 109.408 65.4275C108.83 65.0002 108.194 64.1797 107.831 63.5709C107.617 63.2345 107.587 62.8392 107.343 62.5958C107.387 62.1894 107.759 62.0687 108.135 61.9695L108.221 61.9467C108.351 61.9131 108.478 61.8794 108.588 61.835C110.167 61.1648 112.048 60.9216 114.478 60.9825C114.387 60.3724 112.869 59.6122 112.384 59.2468C111.411 58.5456 110.381 57.8139 109.349 57.1756C108.802 56.8414 107.859 56.5974 107.253 56.3243C106.434 55.9892 104.611 55.6543 104.157 55.0161C103.385 54.0099 102.831 52.8099 102.293 51.5977L102.146 51.2668L101.999 50.9362C101.363 49.4764 100.573 47.9545 99.9354 46.4597C99.602 45.7306 99.449 45.0906 99.0839 44.3913C96.8683 40.0998 93.5891 36.5069 89.6134 33.9801C88.3069 33.1579 86.8501 32.397 85.2419 31.8799C84.3305 31.6046 83.2367 31.7569 82.2657 31.5457H81.6266C81.0812 31.392 80.6258 30.8137 80.2002 30.5089C79.2603 29.8706 78.3189 29.4421 77.1948 28.9867C76.801 28.8041 75.6763 28.3787 75.2837 28.7136C75.0406 28.7747 74.9173 28.8664 74.8575 29.1104C74.6157 29.4744 74.8283 30.0229 74.9788 30.3586C75.4349 31.3315 76.0718 31.9097 76.65 32.7319C77.1644 33.461 77.8033 34.2832 78.168 35.076C78.9548 36.7802 79.3212 38.6684 80.0503 40.3723C80.3207 41.0131 80.7484 41.7423 81.142 42.3203C81.4756 42.7791 82.0822 43.1108 82.2657 43.6915C82.6314 44.3004 81.7181 46.3094 81.5067 46.9475C80.7158 49.4441 80.8691 52.9144 81.7799 55.0784L81.8284 55.1925L81.8769 55.3081C82.2095 56.1007 82.5654 56.9542 83.4496 57.1758C83.5105 57.1154 83.4496 57.1471 83.5703 57.1154C83.7842 55.4403 83.8445 53.8273 84.4218 52.5167C84.7554 51.6973 85.4216 51.118 85.8782 50.4491C86.1827 50.6313 86.1827 51.1808 86.364 51.5444C86.7592 52.4875 87.1835 53.5216 87.6706 54.4674C88.6703 56.4154 89.7952 58.3039 91.0698 60.0079C91.4966 60.6166 92.1023 61.2865 92.6486 61.8347C92.8919 62.047 93.1644 62.1696 93.3473 62.4428H93.4069V62.5347C92.4962 62.199 91.9188 61.2567 91.1924 60.7066C89.8248 59.6726 88.187 58.1198 87.2444 56.6298C86.8501 55.7744 86.4239 54.9545 85.9989 54.1034V54.0419C85.8173 54.285 85.8782 54.5264 85.7873 54.8943C85.393 56.4154 85.6966 58.1507 84.3305 58.6978C82.7819 59.3386 81.6268 57.6638 81.142 56.9027C79.5931 54.3765 79.1688 50.1149 80.2611 46.6748C80.5038 45.9133 80.5368 45 80.9605 44.3919C80.8689 43.8423 80.4453 43.692 80.2002 43.3552C79.7753 42.7795 79.4115 42.1089 79.0787 41.4696C78.4396 40.2208 77.9849 38.7286 77.4997 37.3893C77.2864 36.8424 77.2253 36.2933 77.0126 35.7756C76.6498 34.9853 75.9811 34.1925 75.4653 33.4934C74.7668 32.4886 72.7324 30.541 73.5525 28.5611ZM83.5098 34.5253C83.5909 34.6066 83.6889 34.6777 83.7902 34.7478L83.9124 34.8316C84.0753 34.9445 84.233 35.0633 84.3297 35.2251C84.4829 35.4392 84.5115 35.6506 84.695 35.8652C84.695 36.5969 84.4829 37.0834 84.0548 37.3865C84.0548 37.3865 84.0257 37.4185 83.9956 37.4483C83.7529 36.9605 83.5403 36.4754 83.2959 35.9881C82.9948 35.5627 82.5693 35.2253 82.324 34.7392H82.265V34.6781C82.6314 34.5877 82.9948 34.5253 83.5098 34.5253Z" fill="#00758F"/>
</svg>
