<svg width="128" height="128" viewBox="0 0 128 128" fill="none" xmlns="http://www.w3.org/2000/svg">
<rect width="128" height="128" rx="25" fill="url(#paint0_linear_77_120)"/>
<path d="M77.4039 79H70.2567L69.659 78.3988V61.5458C69.659 58.5469 68.4897 56.2232 64.9002 56.142C63.0526 56.0927 60.9394 56.142 58.6805 56.2322L58.3418 56.5808V78.3905L57.7449 78.9918H50.5969L50 78.3905V49.6012L50.5969 49H66.6819C72.9334 49 78 54.102 78 60.3999V78.3988L77.4039 79Z" fill="white"/>
<path d="M59.8075 110.395V88.6547L60.4145 88.0487H67.6989L68.3059 88.6539V110.395L67.6989 111H60.4153L59.8075 110.395ZM59.8075 40.3461V18.606L60.4145 18H67.6989L68.3059 18.6052V40.3461L67.6989 40.9513H60.4153L59.8075 40.3461ZM116.393 68.737H87.3215L86.7145 68.1317V60.8691L87.3215 60.2639H116.393L117 60.8691V68.1326L116.393 68.737ZM40.6785 68.737H11.607L11 68.1317V60.8691L11.607 60.2639H40.6785L41.2855 60.8691V68.1326L40.6785 68.737ZM33.6483 39.3156V38.3174L38.6448 33.3361H39.6451L47.2823 40.9513V46.2274L46.5768 46.9309H41.2855L33.6483 39.3156ZM39.6451 95.6556H38.6448L33.6491 90.6743V89.6761L41.2863 82.0617H46.5776L47.2823 82.7644V88.0404L39.6451 95.6556Z" fill="#05BDBA"/>
<defs>
<linearGradient id="paint0_linear_77_120" x1="0" y1="0" x2="128" y2="128" gradientUnits="userSpaceOnUse">
<stop stop-color="#0C2A30"/>
<stop offset="1" stop-color="#151D37"/>
</linearGradient>
</defs>
</svg>
