<svg width="128" height="128" viewBox="0 0 128 128" fill="none" xmlns="http://www.w3.org/2000/svg">
<rect width="128" height="128" fill="white"/>
<path d="M64 118C93.8234 118 118 93.8234 118 64C118 34.1766 93.8234 10 64 10C34.1766 10 10 34.1766 10 64C10 93.8234 34.1766 118 64 118Z" fill="black" stroke="white" stroke-width="0.5"/>
<path d="M101.04 106L51.0401 41.6H41.6001V86.4H49.1601V51.2L95.1201 110.56C97.2001 109.16 99.1201 107.68 101.04 106.04V106Z" fill="url(#paint0_linear_66_87)"/>
<path d="M79.5601 41.6H87.0001V86.4H79.6001L79.5601 41.6Z" fill="url(#paint1_linear_66_87)"/>
<defs>
<linearGradient id="paint0_linear_66_87" x1="41.7021" y1="110.71" x2="58.8621" y2="139.332" gradientUnits="userSpaceOnUse">
<stop stop-color="white"/>
<stop offset="1" stop-color="white" stop-opacity="0"/>
</linearGradient>
<linearGradient id="paint1_linear_66_87" x1="80.2021" y1="41.85" x2="80.2021" y2="74.938" gradientUnits="userSpaceOnUse">
<stop stop-color="white"/>
<stop offset="1" stop-color="white" stop-opacity="0"/>
</linearGradient>
</defs>
</svg>
