<svg width="128" height="128" viewBox="0 0 128 128" fill="none" xmlns="http://www.w3.org/2000/svg">
<g clip-path="url(#clip0_69_108)">
<path d="M98 0H30C13.4315 0 0 13.4315 0 30V98C0 114.569 13.4315 128 30 128H98C114.569 128 128 114.569 128 98V30C128 13.4315 114.569 0 98 0Z" fill="#242938"/>
<path d="M24.579 50.123H38.783C42.952 50.1583 45.973 51.3597 47.846 53.727C49.7187 56.094 50.337 59.327 49.701 63.426C49.4537 65.2987 48.906 67.136 48.058 68.938C47.2453 70.74 46.1147 72.3653 44.666 73.814C42.8993 75.651 41.009 76.817 38.995 77.312C36.9807 77.8067 34.896 78.054 32.741 78.054H26.381L24.367 88.124H17L24.579 50.123ZM30.78 56.165L27.6 72.065C27.812 72.1003 28.024 72.118 28.236 72.118H28.978C32.3703 72.1533 35.197 71.8177 37.458 71.111C39.7193 70.369 41.2387 67.7897 42.016 63.373C42.652 59.663 42.016 57.5253 40.108 56.96C38.2353 56.395 35.8857 56.13 33.059 56.165C32.6353 56.2003 32.229 56.218 31.84 56.218H30.727L30.78 56.165ZM58.093 40H65.407L63.34 50.123H69.912C73.5157 50.194 76.201 50.936 77.968 52.349C79.77 53.7623 80.3 56.4477 79.558 60.405L76.007 78.054H68.587L71.979 61.2C72.332 59.4333 72.226 58.179 71.661 57.437C71.096 56.695 69.877 56.324 68.004 56.324L62.121 56.271L57.775 78.054H50.461L58.093 40ZM87.412 50.123H101.616C105.785 50.1583 108.806 51.3597 110.679 53.727C112.552 56.094 113.17 59.327 112.534 63.426C112.287 65.2987 111.739 67.136 110.891 68.938C110.078 70.74 108.948 72.3653 107.499 73.814C105.732 75.651 103.842 76.817 101.828 77.312C99.8137 77.8067 97.729 78.054 95.574 78.054H89.214L87.2 88.124H79.833L87.412 50.123ZM93.613 56.165L90.433 72.065C90.645 72.1003 90.857 72.118 91.069 72.118H91.811C95.2033 72.1533 98.03 71.8177 100.291 71.111C102.552 70.369 104.072 67.7897 104.849 63.373C105.485 59.663 104.849 57.5253 102.941 56.96C101.068 56.395 98.7187 56.13 95.892 56.165C95.468 56.2003 95.0617 56.218 94.673 56.218H93.56L93.613 56.165Z" fill="white"/>
</g>
<defs>
<clipPath id="clip0_69_108">
<rect width="128" height="128" fill="white"/>
</clipPath>
</defs>
</svg>
