<svg width="128" height="128" viewBox="0 0 128 128" fill="none" xmlns="http://www.w3.org/2000/svg">
<g clip-path="url(#clip0_66_80)">
<path d="M98 0H30C13.4315 0 0 13.4315 0 30V98C0 114.569 13.4315 128 30 128H98C114.569 128 128 114.569 128 98V30C128 13.4315 114.569 0 98 0Z" fill="#242938"/>
<path d="M64.0004 73.4755C69.1524 73.4755 73.3284 69.299 73.3284 64.1475C73.3284 58.996 69.1524 54.8195 64.0004 54.8195C58.8484 54.8195 54.6724 58.996 54.6724 64.1475C54.6724 69.299 58.8489 73.4755 64.0004 73.4755Z" fill="#00D8FF"/>
<path d="M64.001 45.1815C76.525 45.1815 88.1595 46.9785 96.932 49.999C107.501 53.6375 114 59.153 114 64.1475C114 69.352 107.113 75.2115 95.7625 78.972C87.1815 81.815 75.8895 83.299 64.001 83.299C51.812 83.299 40.2695 81.906 31.5915 78.9405C20.6125 75.188 14 69.253 14 64.1475C14 59.1935 20.205 53.7205 30.626 50.0875C39.431 47.0175 51.3525 45.1815 63.999 45.1815H64.001Z" stroke="#00D8FF" stroke-width="6"/>
<path d="M47.4905 54.719C53.7475 43.87 61.116 34.689 68.115 28.599C76.547 21.2605 84.572 18.3865 88.898 20.881C93.4065 23.481 95.042 32.375 92.6295 44.086C90.807 52.9395 86.45 63.4625 80.5105 73.7615C74.421 84.3205 67.4485 93.6235 60.545 99.6575C51.8095 107.293 43.364 110.057 38.9415 107.506C34.65 105.033 33.009 96.923 35.068 86.0805C36.8075 76.919 41.173 65.6745 47.4885 54.719H47.4905Z" stroke="#00D8FF" stroke-width="6"/>
<path d="M47.5059 73.789C41.2314 62.952 36.9594 51.981 35.1764 42.876C33.0299 31.9055 34.5474 23.518 38.8699 21.016C43.3744 18.408 51.8959 21.433 60.8369 29.372C67.5969 35.374 74.5384 44.4025 80.4949 54.6915C86.6019 65.2405 91.1789 75.928 92.9594 84.922C95.2124 96.304 93.3889 105.001 88.9704 107.558C84.6834 110.04 76.8379 107.413 68.4724 100.214C61.4044 94.1315 53.8424 84.734 47.5059 73.789Z" stroke="#00D8FF" stroke-width="6"/>
</g>
<defs>
<clipPath id="clip0_66_80">
<rect width="128" height="128" fill="white"/>
</clipPath>
</defs>
</svg>
