<svg width="128" height="128" viewBox="0 0 128 128" fill="none" xmlns="http://www.w3.org/2000/svg">
<rect width="128" height="128" fill="white"/>
<path d="M64 35C50.9333 35 42.7667 41.5556 39.5 54.6667C44.4 48.1111 50.1167 45.6528 56.65 47.2917C60.3774 48.2266 63.0418 50.9404 65.991 53.9438C70.7953 58.837 76.3553 64.5 88.5 64.5C101.567 64.5 109.733 57.9444 113 44.8333C108.1 51.3889 102.383 53.8472 95.85 52.2083C92.1226 51.2734 89.4582 48.5596 86.509 45.5562C81.7047 40.663 76.1447 35 64 35ZM39.5 64.5C26.4333 64.5 18.2667 71.0556 15 84.1667C19.9 77.6111 25.6167 75.1528 32.15 76.7917C35.8774 77.7266 38.5418 80.4404 41.491 83.4438C46.2953 88.337 51.8553 94 64 94C77.0667 94 85.2333 87.4444 88.5 74.3333C83.6 80.8889 77.8833 83.3472 71.35 81.7083C67.6226 80.7734 64.9582 78.0596 62.009 75.0562C57.2047 70.163 51.6447 64.5 39.5 64.5Z" fill="url(#paint0_linear_66_70)"/>
<defs>
<linearGradient id="paint0_linear_66_70" x1="-257.244" y1="1923" x2="8220.97" y2="6794.82" gradientUnits="userSpaceOnUse">
<stop stop-color="#2298BD"/>
<stop offset="1" stop-color="#0ED7B5"/>
</linearGradient>
</defs>
</svg>
