<svg width="128" height="128" viewBox="0 0 128 128" fill="none" xmlns="http://www.w3.org/2000/svg">
<g clip-path="url(#clip0_61_11)">
<path d="M98 0H30C13.4315 0 0 13.4315 0 30V98C0 114.569 13.4315 128 30 128H98C114.569 128 128 114.569 128 98V30C128 13.4315 114.569 0 98 0Z" fill="#242938"/>
<path d="M16.8579 50.104C16.8579 50.104 14.4904 48.3975 17.3314 46.119L23.9494 40.201C23.9494 40.201 25.8434 38.2085 27.8454 39.9445L88.9199 86.184V108.357C88.9199 108.357 88.8904 111.839 84.4219 111.454L16.8579 50.104Z" fill="#2489CA"/>
<path d="M32.5998 64.396L16.8578 78.7075C16.8578 78.7075 15.2398 79.911 16.8578 82.0615L24.1663 88.709C24.1663 88.709 25.9023 90.5735 28.4668 88.4525L45.1558 75.798L32.5998 64.396Z" fill="#1070B3"/>
<path d="M60.2368 64.5145L89.1073 42.4695L88.9198 20.415C88.9198 20.415 87.6868 15.6015 83.5738 18.107L45.1558 53.0725L60.2368 64.5145Z" fill="#0877B9"/>
<path d="M84.4222 111.484C86.0992 113.2 88.1312 112.638 88.1312 112.638L110.63 101.551C113.51 99.5885 113.105 97.1525 113.105 97.1525V30.949C113.105 28.039 110.126 27.0335 110.126 27.0335L90.6267 17.6335C86.3657 15 83.5742 18.107 83.5742 18.107C83.5742 18.107 87.1642 15.523 88.9202 20.415V107.952C88.9225 108.549 88.7911 109.139 88.5357 109.679C88.0227 110.714 86.9082 111.681 84.2352 111.276L84.4222 111.484Z" fill="#3C99D4"/>
</g>
<defs>
<clipPath id="clip0_61_11">
<rect width="128" height="128" fill="white"/>
</clipPath>
</defs>
</svg>
