<svg width="128" height="128" viewBox="0 0 128 128" fill="none" xmlns="http://www.w3.org/2000/svg">
<g clip-path="url(#clip0_66_72)">
<path d="M98 0H30C13.4315 0 0 13.4315 0 30V98C0 114.569 13.4315 128 30 128H98C114.569 128 128 114.569 128 98V30C128 13.4315 114.569 0 98 0Z" fill="#0073AA"/>
<path d="M21.1069 63.9971C21.1069 80.9746 30.9734 95.6466 45.2804 102.6L24.8204 46.5416C22.3684 52.034 21.103 57.9821 21.1069 63.9971ZM92.9539 61.8326C92.9539 56.5321 91.0499 52.8611 89.4169 50.0036C87.2424 46.4706 85.2044 43.4786 85.2044 39.9456C85.2044 36.0026 88.1949 32.3326 92.4069 32.3326C92.5974 32.3326 92.7774 32.3561 92.9629 32.3666C85.3319 25.3756 75.1654 21.1071 63.9984 21.1071C49.0144 21.1071 35.8309 28.7951 28.1619 40.4401C29.1679 40.4701 30.1164 40.4916 30.9219 40.4916C35.4084 40.4916 42.3529 39.9466 42.3529 39.9466C44.6649 39.8106 44.9379 43.2066 42.6279 43.4801C42.6279 43.4801 40.3044 43.7536 37.7189 43.8891L53.3379 90.3481L62.7244 62.1966L56.0419 43.8876C53.7324 43.7521 51.5444 43.4786 51.5444 43.4786C49.2329 43.3431 49.5039 39.8091 51.8154 39.9456C51.8154 39.9456 58.8984 40.4896 63.1129 40.4896C67.5989 40.4896 74.5439 39.9456 74.5439 39.9456C76.8579 39.8091 77.1294 43.2051 74.8189 43.4786C74.8189 43.4786 72.4904 43.7521 69.9099 43.8876L85.4104 89.9946L89.6884 75.6986C91.5429 69.7656 92.9539 65.5046 92.9539 61.8326Z" fill="white"/>
<path d="M64.7513 67.7489L51.8823 105.144C55.8169 106.303 59.8972 106.891 63.9988 106.891C68.8499 106.893 73.666 106.071 78.2418 104.46C78.1229 104.272 78.0208 104.075 77.9368 103.869L64.7513 67.7489ZM101.634 43.4189C101.829 44.8808 101.926 46.3541 101.923 47.8289C101.923 52.1814 101.11 57.0744 98.6618 63.1924L85.5603 101.072C98.3118 93.6359 106.889 79.8214 106.889 63.9979C106.889 56.5404 104.985 49.5279 101.634 43.4189Z" fill="white"/>
<path d="M63.999 14C36.43 14 14 36.4285 14 63.997C14 91.569 36.43 113.996 63.999 113.996C91.5665 113.996 114 91.569 114 63.997C113.999 36.4285 91.5665 14 63.999 14ZM63.999 111.705C37.694 111.705 16.2925 90.303 16.2925 63.997C16.2925 37.6925 37.6935 16.2925 63.999 16.2925C90.3025 16.2925 111.702 37.6925 111.702 63.997C111.702 90.303 90.3025 111.705 63.999 111.705Z" fill="white"/>
</g>
<defs>
<clipPath id="clip0_66_72">
<rect width="128" height="128" fill="white"/>
</clipPath>
</defs>
</svg>
