<svg width="128" height="128" viewBox="0 0 128 128" fill="none" xmlns="http://www.w3.org/2000/svg">
<rect width="128" height="128" rx="30" fill="#FE9225"/>
<path fill-rule="evenodd" clip-rule="evenodd" d="M110.859 104.678C111.681 101.92 108.805 96.6382 104.75 90.5514C94.1289 75.1288 74.5433 66.9326 63.8853 68.4695L63.9501 68.0475C67.5172 63.7471 71.2298 58.9777 74.9745 56.0648C82.1102 60.05 88.2306 58.4435 94.2106 52.0053C97.0874 49.1153 98.251 46.8748 97.7342 45.2832C96.8611 42.6527 94.7602 41.3863 91.43 41.4193C88.322 41.5521 83.4209 44.641 81.3762 46.4851C74.0372 43.1725 68.799 41.2239 65.6307 40.6718C53.6693 38.5285 43.3239 42.3611 34.6271 52.1348C29.9394 57.4931 27.8058 60.6106 28.2585 61.5203C28.6406 62.0352 29.8102 61.9152 31.0386 61.7477C33.9872 60.8985 40.8436 58.5497 40.8345 57.136C40.8814 53.2361 41.048 51.2293 45.49 48.1083C52.0592 43.795 57.0086 44.0229 65.1139 49.9266C68.0565 51.9723 70.4318 53.4877 71.7571 54.2338C66.1569 58.935 61.3921 63.9311 57.8723 69.2811C43.8178 72.8787 23.7823 83.8484 18.6566 96.7216C17.9033 98.6001 17.7311 99.5363 18.4949 100.001C26.4836 103.313 44.6579 92.5745 56.0292 78.017C66.9452 76.7709 97.6403 80.2371 95.5687 90.0966C94.6763 92.2077 94.6965 92.6197 94.8245 93.1494C95.9591 96.245 103.386 101.965 108.435 104.483C109.826 105.1 110.633 105.165 110.859 104.678ZM85.3847 47.7832C84.7099 47.3395 88.8001 45.3548 91.7862 44.8609C94.7797 44.3878 96.3084 45.6649 95.2125 46.7447C92.8348 48.9487 86.5232 48.6068 85.3847 47.7832ZM31.9114 94.3187C28.2281 96.3421 24.8365 97.8035 23.603 95.8124C23.1825 92.7275 25.5102 89.5447 30.5537 86.2648C36.3723 82.5194 42.664 80.0913 49.3695 78.7961L50.1129 78.8932C45.1807 84.848 38.823 90.3624 31.9114 94.3187ZM39.8322 50.5441C39.0239 51.8756 38.5067 53.2071 38.2805 54.5385C38.0542 55.6102 37.7628 56.3568 37.3752 56.7795C36.567 57.6234 35.9204 57.9804 35.4353 57.8505C35.1121 57.818 35.0475 57.6233 35.2415 57.2984C35.5323 56.8111 36.1793 55.4153 37.1487 53.1093C38.1512 50.9661 39.0239 49.7643 39.7999 49.4725C40.3497 49.31 40.3497 49.6672 39.8322 50.5441ZM58.6806 41.3863C61.8162 41.3215 65.3729 42.0683 69.3816 43.6273C71.6127 44.5042 74.554 45.8021 78.2391 47.5893C81.99 49.2454 84.6734 50.154 86.3221 50.3164C86.6772 50.6088 86.5154 50.7387 85.8371 50.7387C82.7986 50.5763 79.8877 49.9268 77.0755 48.7905L69.0909 45.0563C65.469 43.4649 61.9456 42.3611 58.5189 41.7112C58.2601 41.5809 58.3247 41.4839 58.6806 41.3865M85.6426 76.4582C81.2787 74.2824 76.3326 72.7889 70.8042 71.912C64.4349 71.5223 61.2344 71.1651 61.1374 70.8726C61.0726 70.6132 61.4931 70.3858 62.4307 70.2236C70.2965 69.4146 78.956 71.8989 88.0354 77.0101C90.5814 78.6695 88.504 77.9512 85.6426 76.4582ZM95.5358 82.8228C94.9221 82.1406 94.7602 81.9137 94.9864 82.076C96.0853 82.7905 97.2175 83.8945 98.4127 85.4211C100.191 87.6291 100.741 89.4803 100.127 91.0059L99.771 91.3311C99.4802 91.2986 99.1567 90.7467 98.8332 89.6427C98.2016 86.6935 98.2556 85.8303 95.5358 82.8228ZM99.5774 94.3835C98.9078 92.9027 99.7208 91.6405 100.644 93.1496L102.939 96.5917C103.263 97.0144 103.294 97.2414 103.068 97.2091C102.143 97.2155 100.372 95.8073 99.5774 94.3835ZM67.119 26.8706C65.8899 28.7867 65.4374 30.6379 65.7925 32.4235C66.1158 34.1123 67.0535 35.4435 68.6376 36.3851C70.1575 37.3273 72.5174 37.6517 75.7833 37.392C79.9536 37.0996 82.0546 36.2227 82.0875 34.7938C82.3135 32.4237 81.4078 29.8256 79.3713 27.0655C77.1729 24.1103 74.813 22.7463 72.2582 23.0388C70.2863 23.2984 68.5733 24.565 67.119 26.8706ZM72.4847 27.8449C71.7878 27.2738 72.0433 26.2277 72.808 25.7989L74.1662 25.8963C74.7158 26.2536 75.1034 26.6759 75.2982 27.228C75.83 28.8008 73.4916 28.5271 72.4845 27.8449M78.6271 34.6642C78.9833 34.7616 79.1121 34.9246 79.0805 35.087C79.0162 35.3789 78.4008 35.5735 77.27 35.6706L75.6858 35.5735C74.7485 35.3623 75.8532 34.508 77.4317 34.5347L78.6271 34.6642Z" fill="black"/>
</svg>
