<svg width="195" height="119" viewBox="0 0 195 119" fill="none" xmlns="http://www.w3.org/2000/svg">
<path d="M20.6857 86.024C21.3097 86.336 21.6697 86.828 21.7657 87.5C21.8857 88.172 21.7177 88.784 21.2617 89.336C20.9497 89.768 20.5417 90.008 20.0377 90.056C19.5577 90.104 19.0657 90.008 18.5617 89.768C17.9857 89.504 17.3737 89.3 16.7257 89.156C16.1017 89.012 15.4417 88.94 14.7457 88.94C13.4497 88.94 12.2857 89.144 11.2537 89.552C10.2457 89.96 9.3817 90.548 8.6617 91.316C7.9417 92.06 7.3897 92.948 7.0057 93.98C6.6457 95.012 6.4657 96.152 6.4657 97.4C6.4657 98.864 6.6697 100.136 7.0777 101.216C7.5097 102.296 8.0977 103.196 8.8417 103.916C9.5857 104.636 10.4617 105.176 11.4697 105.536C12.4777 105.872 13.5697 106.04 14.7457 106.04C15.3937 106.04 16.0417 105.98 16.6897 105.86C17.3377 105.74 17.9617 105.524 18.5617 105.212C19.0657 104.972 19.5577 104.888 20.0377 104.96C20.5417 105.032 20.9617 105.284 21.2977 105.716C21.7777 106.316 21.9457 106.94 21.8017 107.588C21.6817 108.212 21.3217 108.668 20.7217 108.956C20.0977 109.268 19.4497 109.532 18.7777 109.748C18.1297 109.94 17.4697 110.084 16.7977 110.18C16.1257 110.3 15.4417 110.36 14.7457 110.36C13.0177 110.36 11.3737 110.084 9.8137 109.532C8.2777 108.98 6.8977 108.164 5.6737 107.084C4.4737 106.004 3.5257 104.66 2.8297 103.052C2.1337 101.42 1.7857 99.536 1.7857 97.4C1.7857 95.552 2.0977 93.848 2.7217 92.288C3.3697 90.728 4.2697 89.384 5.4217 88.256C6.5977 87.104 7.9777 86.216 9.5617 85.592C11.1457 84.944 12.8737 84.62 14.7457 84.62C15.8017 84.62 16.8337 84.74 17.8417 84.98C18.8497 85.22 19.7977 85.568 20.6857 86.024ZM29.936 107.804C29.936 108.428 29.72 108.956 29.288 109.388C28.88 109.796 28.364 110 27.74 110C27.14 110 26.636 109.796 26.228 109.388C25.82 108.956 25.616 108.428 25.616 107.804V85.556C25.616 84.932 25.82 84.416 26.228 84.008C26.66 83.576 27.188 83.36 27.812 83.36C28.436 83.36 28.94 83.576 29.324 84.008C29.732 84.416 29.936 84.932 29.936 85.556V107.804ZM53.2916 100.388C53.2916 102.356 52.8476 104.096 51.9596 105.608C51.0956 107.096 49.9196 108.26 48.4316 109.1C46.9676 109.94 45.3236 110.36 43.4996 110.36C41.6756 110.36 40.0196 109.94 38.5316 109.1C37.0676 108.26 35.8916 107.096 35.0036 105.608C34.1396 104.096 33.7076 102.356 33.7076 100.388C33.7076 98.42 34.1396 96.692 35.0036 95.204C35.8916 93.692 37.0676 92.516 38.5316 91.676C40.0196 90.812 41.6756 90.38 43.4996 90.38C45.3236 90.38 46.9676 90.812 48.4316 91.676C49.9196 92.516 51.0956 93.692 51.9596 95.204C52.8476 96.692 53.2916 98.42 53.2916 100.388ZM48.9716 100.388C48.9716 99.164 48.7196 98.108 48.2156 97.22C47.7356 96.308 47.0756 95.6 46.2356 95.096C45.4196 94.592 44.5076 94.34 43.4996 94.34C42.4916 94.34 41.5676 94.592 40.7276 95.096C39.9116 95.6 39.2516 96.308 38.7476 97.22C38.2676 98.108 38.0276 99.164 38.0276 100.388C38.0276 101.588 38.2676 102.644 38.7476 103.556C39.2516 104.444 39.9116 105.14 40.7276 105.644C41.5676 106.148 42.4916 106.4 43.4996 106.4C44.5076 106.4 45.4196 106.148 46.2356 105.644C47.0756 105.14 47.7356 104.444 48.2156 103.556C48.7196 102.644 48.9716 101.588 48.9716 100.388ZM71.3644 90.74C71.9884 90.74 72.5044 90.956 72.9124 91.388C73.3204 91.796 73.5244 92.312 73.5244 92.936V102.08C73.5244 104.624 72.8164 106.64 71.4004 108.128C69.9844 109.616 67.9444 110.36 65.2804 110.36C62.6164 110.36 60.5764 109.616 59.1604 108.128C57.7684 106.64 57.0724 104.624 57.0724 102.08V92.936C57.0724 92.312 57.2764 91.796 57.6844 91.388C58.0924 90.956 58.6084 90.74 59.2324 90.74C59.8564 90.74 60.3724 90.956 60.7804 91.388C61.1884 91.796 61.3924 92.312 61.3924 92.936V102.08C61.3924 103.544 61.7164 104.636 62.3644 105.356C63.0124 106.052 63.9844 106.4 65.2804 106.4C66.6004 106.4 67.5844 106.052 68.2324 105.356C68.8804 104.636 69.2044 103.544 69.2044 102.08V92.936C69.2044 92.312 69.4084 91.796 69.8164 91.388C70.2244 90.956 70.7404 90.74 71.3644 90.74ZM93.9693 83.36C94.5933 83.36 95.1093 83.564 95.5173 83.972C95.9253 84.38 96.1293 84.908 96.1293 85.556V107.804C96.1293 108.428 95.9253 108.956 95.5173 109.388C95.1093 109.796 94.5933 110 93.9693 110C93.3453 110 92.8293 109.796 92.4213 109.388C92.0133 108.956 91.8093 108.428 91.8093 107.804V106.04L92.6013 106.364C92.6013 106.676 92.4333 107.06 92.0973 107.516C91.7613 107.948 91.3053 108.38 90.7293 108.812C90.1533 109.244 89.4693 109.616 88.6773 109.928C87.9093 110.216 87.0693 110.36 86.1573 110.36C84.5013 110.36 83.0013 109.94 81.6573 109.1C80.3133 108.236 79.2453 107.06 78.4533 105.572C77.6853 104.06 77.3013 102.332 77.3013 100.388C77.3013 98.42 77.6853 96.692 78.4533 95.204C79.2453 93.692 80.3013 92.516 81.6213 91.676C82.9413 90.812 84.4053 90.38 86.0133 90.38C87.0453 90.38 87.9933 90.536 88.8573 90.848C89.7213 91.16 90.4653 91.556 91.0893 92.036C91.7373 92.516 92.2293 93.008 92.5653 93.512C92.9253 93.992 93.1053 94.4 93.1053 94.736L91.8093 95.204V85.556C91.8093 84.932 92.0133 84.416 92.4213 84.008C92.8293 83.576 93.3453 83.36 93.9693 83.36ZM86.6973 106.4C87.7533 106.4 88.6773 106.136 89.4693 105.608C90.2613 105.08 90.8733 104.36 91.3053 103.448C91.7613 102.536 91.9893 101.516 91.9893 100.388C91.9893 99.236 91.7613 98.204 91.3053 97.292C90.8733 96.38 90.2613 95.66 89.4693 95.132C88.6773 94.604 87.7533 94.34 86.6973 94.34C85.6653 94.34 84.7533 94.604 83.9613 95.132C83.1693 95.66 82.5453 96.38 82.0893 97.292C81.6573 98.204 81.4413 99.236 81.4413 100.388C81.4413 101.516 81.6573 102.536 82.0893 103.448C82.5453 104.36 83.1693 105.08 83.9613 105.608C84.7533 106.136 85.6653 106.4 86.6973 106.4ZM110.779 90.38C112.459 90.38 113.959 90.812 115.279 91.676C116.623 92.516 117.679 93.68 118.447 95.168C119.239 96.656 119.635 98.384 119.635 100.352C119.635 102.32 119.239 104.06 118.447 105.572C117.679 107.06 116.635 108.236 115.315 109.1C114.019 109.94 112.555 110.36 110.923 110.36C109.963 110.36 109.063 110.204 108.223 109.892C107.383 109.58 106.639 109.184 105.991 108.704C105.367 108.224 104.875 107.744 104.515 107.264C104.179 106.76 104.011 106.34 104.011 106.004L105.127 105.536V108.164C105.127 108.788 104.923 109.316 104.515 109.748C104.107 110.156 103.591 110.36 102.967 110.36C102.343 110.36 101.827 110.156 101.419 109.748C101.011 109.34 100.807 108.812 100.807 108.164V85.556C100.807 84.932 101.011 84.416 101.419 84.008C101.827 83.576 102.343 83.36 102.967 83.36C103.591 83.36 104.107 83.576 104.515 84.008C104.923 84.416 105.127 84.932 105.127 85.556V94.7L104.515 94.376C104.515 94.064 104.683 93.692 105.019 93.26C105.355 92.804 105.811 92.36 106.387 91.928C106.963 91.472 107.623 91.1 108.367 90.812C109.135 90.524 109.939 90.38 110.779 90.38ZM110.239 94.34C109.183 94.34 108.259 94.604 107.467 95.132C106.675 95.66 106.051 96.38 105.595 97.292C105.163 98.18 104.947 99.2 104.947 100.352C104.947 101.48 105.163 102.512 105.595 103.448C106.051 104.36 106.675 105.08 107.467 105.608C108.259 106.136 109.183 106.4 110.239 106.4C111.295 106.4 112.207 106.136 112.975 105.608C113.767 105.08 114.379 104.36 114.811 103.448C115.267 102.512 115.495 101.48 115.495 100.352C115.495 99.2 115.267 98.18 114.811 97.292C114.379 96.38 113.767 95.66 112.975 95.132C112.207 94.604 111.295 94.34 110.239 94.34ZM132.484 110.36C130.444 110.36 128.668 109.94 127.156 109.1C125.668 108.236 124.516 107.072 123.7 105.608C122.908 104.144 122.512 102.488 122.512 100.64C122.512 98.48 122.944 96.644 123.808 95.132C124.696 93.596 125.848 92.42 127.264 91.604C128.68 90.788 130.18 90.38 131.764 90.38C132.988 90.38 134.14 90.632 135.22 91.136C136.324 91.64 137.296 92.336 138.136 93.224C138.976 94.088 139.636 95.096 140.116 96.248C140.62 97.4 140.872 98.624 140.872 99.92C140.848 100.496 140.62 100.964 140.188 101.324C139.756 101.684 139.252 101.864 138.676 101.864H124.924L123.844 98.264H137.056L136.264 98.984V98.012C136.216 97.316 135.964 96.692 135.508 96.14C135.076 95.588 134.524 95.156 133.852 94.844C133.204 94.508 132.508 94.34 131.764 94.34C131.044 94.34 130.372 94.436 129.748 94.628C129.124 94.82 128.584 95.144 128.128 95.6C127.672 96.056 127.312 96.668 127.048 97.436C126.784 98.204 126.652 99.176 126.652 100.352C126.652 101.648 126.916 102.752 127.444 103.664C127.996 104.552 128.692 105.236 129.532 105.716C130.396 106.172 131.308 106.4 132.268 106.4C133.156 106.4 133.864 106.328 134.392 106.184C134.92 106.04 135.34 105.872 135.652 105.68C135.988 105.464 136.288 105.284 136.552 105.14C136.984 104.924 137.392 104.816 137.776 104.816C138.304 104.816 138.736 104.996 139.072 105.356C139.432 105.716 139.612 106.136 139.612 106.616C139.612 107.264 139.276 107.852 138.604 108.38C137.98 108.908 137.104 109.376 135.976 109.784C134.848 110.168 133.684 110.36 132.484 110.36ZM146.807 110C146.183 110 145.667 109.796 145.259 109.388C144.851 108.956 144.647 108.428 144.647 107.804V92.936C144.647 92.312 144.851 91.796 145.259 91.388C145.667 90.956 146.183 90.74 146.807 90.74C147.431 90.74 147.947 90.956 148.355 91.388C148.763 91.796 148.967 92.312 148.967 92.936V96.32L148.715 93.908C148.979 93.332 149.315 92.828 149.723 92.396C150.155 91.94 150.635 91.568 151.163 91.28C151.691 90.968 152.255 90.74 152.855 90.596C153.455 90.452 154.055 90.38 154.655 90.38C155.375 90.38 155.975 90.584 156.455 90.992C156.959 91.4 157.211 91.88 157.211 92.432C157.211 93.224 157.007 93.8 156.599 94.16C156.191 94.496 155.747 94.664 155.267 94.664C154.811 94.664 154.391 94.58 154.007 94.412C153.647 94.244 153.227 94.16 152.747 94.16C152.315 94.16 151.871 94.268 151.415 94.484C150.983 94.676 150.575 94.988 150.191 95.42C149.831 95.852 149.531 96.392 149.291 97.04C149.075 97.664 148.967 98.408 148.967 99.272V107.804C148.967 108.428 148.763 108.956 148.355 109.388C147.947 109.796 147.431 110 146.807 110ZM162.416 110C161.792 110 161.276 109.796 160.868 109.388C160.46 108.956 160.256 108.428 160.256 107.804V92.936C160.256 92.312 160.46 91.796 160.868 91.388C161.276 90.956 161.792 90.74 162.416 90.74C163.04 90.74 163.556 90.956 163.964 91.388C164.372 91.796 164.576 92.312 164.576 92.936V96.32L164.324 93.908C164.588 93.332 164.924 92.828 165.332 92.396C165.764 91.94 166.244 91.568 166.772 91.28C167.3 90.968 167.864 90.74 168.464 90.596C169.064 90.452 169.664 90.38 170.264 90.38C170.984 90.38 171.584 90.584 172.064 90.992C172.568 91.4 172.82 91.88 172.82 92.432C172.82 93.224 172.616 93.8 172.208 94.16C171.8 94.496 171.356 94.664 170.876 94.664C170.42 94.664 170 94.58 169.616 94.412C169.256 94.244 168.836 94.16 168.356 94.16C167.924 94.16 167.48 94.268 167.024 94.484C166.592 94.676 166.184 94.988 165.8 95.42C165.44 95.852 165.14 96.392 164.9 97.04C164.684 97.664 164.576 98.408 164.576 99.272V107.804C164.576 108.428 164.372 108.956 163.964 109.388C163.556 109.796 163.04 110 162.416 110ZM190.157 90.74C190.781 90.74 191.297 90.956 191.705 91.388C192.113 91.796 192.317 92.312 192.317 92.936V108.236C192.317 110.444 191.897 112.196 191.057 113.492C190.241 114.812 189.137 115.76 187.745 116.336C186.353 116.912 184.793 117.2 183.065 117.2C182.297 117.2 181.481 117.14 180.617 117.02C179.753 116.9 179.045 116.72 178.493 116.48C177.773 116.168 177.269 115.772 176.981 115.292C176.717 114.836 176.669 114.344 176.837 113.816C177.053 113.12 177.401 112.64 177.881 112.376C178.361 112.136 178.865 112.112 179.393 112.304C179.777 112.424 180.281 112.604 180.905 112.844C181.529 113.108 182.249 113.24 183.065 113.24C184.169 113.24 185.081 113.084 185.801 112.772C186.545 112.484 187.097 111.98 187.457 111.26C187.841 110.564 188.033 109.604 188.033 108.38V105.968L188.789 106.832C188.381 107.624 187.865 108.284 187.241 108.812C186.641 109.316 185.921 109.7 185.081 109.964C184.241 110.228 183.281 110.36 182.201 110.36C180.929 110.36 179.813 110.072 178.853 109.496C177.917 108.896 177.185 108.08 176.657 107.048C176.129 105.992 175.865 104.792 175.865 103.448V92.936C175.865 92.312 176.069 91.796 176.477 91.388C176.885 90.956 177.401 90.74 178.025 90.74C178.649 90.74 179.165 90.956 179.573 91.388C179.981 91.796 180.185 92.312 180.185 92.936V102.152C180.185 103.712 180.521 104.816 181.193 105.464C181.889 106.088 182.849 106.4 184.073 106.4C184.913 106.4 185.621 106.244 186.197 105.932C186.773 105.596 187.217 105.116 187.529 104.492C187.841 103.844 187.997 103.064 187.997 102.152V92.936C187.997 92.312 188.201 91.796 188.609 91.388C189.017 90.956 189.533 90.74 190.157 90.74Z" fill="white"/>
<path fill-rule="evenodd" clip-rule="evenodd" d="M101.836 57.385C103.583 58.0721 105.479 58.4485 107.46 58.4485C111.065 58.4485 114.388 57.2017 117.044 55.1038C119.115 57.1633 122.051 58.4488 125.307 58.4488C131.58 58.4488 136.665 53.6789 136.665 47.7949C136.665 41.9109 131.58 37.1409 125.307 37.1409C124.351 37.1409 123.423 37.2518 122.535 37.4605C120.562 30.8136 114.559 25.9794 107.46 25.9794C106.551 25.9794 105.661 26.0585 104.794 26.2105C101.635 19.7333 95.3976 15.3254 88.2197 15.3254C78.8585 15.3254 71.0975 22.8225 69.6766 32.6294C69.2948 32.5932 68.908 32.5746 68.5171 32.5746C61.6041 32.5746 56 38.3667 56 45.5116C56 52.6564 61.6041 58.4485 68.5171 58.4485C69.6271 58.4485 70.7034 58.2992 71.7282 58.0189C75.1696 60.4465 80.448 62.0001 86.366 62.0001C92.7842 62.0001 98.4502 60.1728 101.836 57.385Z" fill="white"/>
<path d="M106.761 20.6076C104.694 15.5644 104.777 4.38238 121.646 0C116.684 8.60824 120.405 21.651 106.761 20.6076Z" fill="white"/>
<path d="M115.914 23.2904C117.374 20.6511 122.236 16.8435 130.008 22.7274C124.558 23.513 120.216 29.6267 115.914 23.2904Z" fill="white"/>
</svg>
