<svg width="328" height="154" viewBox="0 0 328 154" fill="none" xmlns="http://www.w3.org/2000/svg">
<path d="M20.3712 121.024C20.9953 121.336 21.3553 121.828 21.4513 122.5C21.5713 123.172 21.4033 123.784 20.9473 124.336C20.6353 124.768 20.2273 125.008 19.7233 125.056C19.2433 125.104 18.7513 125.008 18.2473 124.768C17.6713 124.504 17.0593 124.3 16.4113 124.156C15.7873 124.012 15.1273 123.94 14.4313 123.94C13.1353 123.94 11.9713 124.144 10.9393 124.552C9.93125 124.96 9.06725 125.548 8.34725 126.316C7.62725 127.06 7.07525 127.948 6.69125 128.98C6.33125 130.012 6.15125 131.152 6.15125 132.4C6.15125 133.864 6.35525 135.136 6.76325 136.216C7.19525 137.296 7.78325 138.196 8.52725 138.916C9.27125 139.636 10.1473 140.176 11.1553 140.536C12.1633 140.872 13.2553 141.04 14.4313 141.04C15.0793 141.04 15.7273 140.98 16.3753 140.86C17.0233 140.74 17.6473 140.524 18.2473 140.212C18.7513 139.972 19.2433 139.888 19.7233 139.96C20.2273 140.032 20.6473 140.284 20.9833 140.716C21.4633 141.316 21.6313 141.94 21.4873 142.588C21.3673 143.212 21.0073 143.668 20.4073 143.956C19.7833 144.268 19.1353 144.532 18.4633 144.748C17.8153 144.94 17.1553 145.084 16.4833 145.18C15.8113 145.3 15.1273 145.36 14.4313 145.36C12.7033 145.36 11.0593 145.084 9.49925 144.532C7.96325 143.98 6.58325 143.164 5.35925 142.084C4.15925 141.004 3.21125 139.66 2.51525 138.052C1.81925 136.42 1.47125 134.536 1.47125 132.4C1.47125 130.552 1.78325 128.848 2.40725 127.288C3.05525 125.728 3.95525 124.384 5.10725 123.256C6.28325 122.104 7.66325 121.216 9.24725 120.592C10.8313 119.944 12.5593 119.62 14.4313 119.62C15.4873 119.62 16.5193 119.74 17.5273 119.98C18.5353 120.22 19.4832 120.568 20.3712 121.024ZM29.6216 142.804C29.6216 143.428 29.4056 143.956 28.9736 144.388C28.5656 144.796 28.0496 145 27.4256 145C26.8256 145 26.3216 144.796 25.9136 144.388C25.5056 143.956 25.3016 143.428 25.3016 142.804V120.556C25.3016 119.932 25.5056 119.416 25.9136 119.008C26.3456 118.576 26.8736 118.36 27.4976 118.36C28.1216 118.36 28.6256 118.576 29.0096 119.008C29.4176 119.416 29.6216 119.932 29.6216 120.556V142.804ZM52.9771 135.388C52.9771 137.356 52.5331 139.096 51.6451 140.608C50.7811 142.096 49.6051 143.26 48.1171 144.1C46.6531 144.94 45.0091 145.36 43.1851 145.36C41.3611 145.36 39.7051 144.94 38.2171 144.1C36.7531 143.26 35.5771 142.096 34.6891 140.608C33.8251 139.096 33.3931 137.356 33.3931 135.388C33.3931 133.42 33.8251 131.692 34.6891 130.204C35.5771 128.692 36.7531 127.516 38.2171 126.676C39.7051 125.812 41.3611 125.38 43.1851 125.38C45.0091 125.38 46.6531 125.812 48.1171 126.676C49.6051 127.516 50.7811 128.692 51.6451 130.204C52.5331 131.692 52.9771 133.42 52.9771 135.388ZM48.6571 135.388C48.6571 134.164 48.4051 133.108 47.9011 132.22C47.4211 131.308 46.7611 130.6 45.9211 130.096C45.1051 129.592 44.1931 129.34 43.1851 129.34C42.1771 129.34 41.2531 129.592 40.4131 130.096C39.5971 130.6 38.9371 131.308 38.4331 132.22C37.9531 133.108 37.7131 134.164 37.7131 135.388C37.7131 136.588 37.9531 137.644 38.4331 138.556C38.9371 139.444 39.5971 140.14 40.4131 140.644C41.2531 141.148 42.1771 141.4 43.1851 141.4C44.1931 141.4 45.1051 141.148 45.9211 140.644C46.7611 140.14 47.4211 139.444 47.9011 138.556C48.4051 137.644 48.6571 136.588 48.6571 135.388ZM71.05 125.74C71.674 125.74 72.19 125.956 72.598 126.388C73.006 126.796 73.21 127.312 73.21 127.936V137.08C73.21 139.624 72.502 141.64 71.086 143.128C69.67 144.616 67.63 145.36 64.966 145.36C62.302 145.36 60.262 144.616 58.846 143.128C57.454 141.64 56.758 139.624 56.758 137.08V127.936C56.758 127.312 56.962 126.796 57.37 126.388C57.778 125.956 58.294 125.74 58.918 125.74C59.542 125.74 60.058 125.956 60.466 126.388C60.874 126.796 61.078 127.312 61.078 127.936V137.08C61.078 138.544 61.402 139.636 62.05 140.356C62.698 141.052 63.67 141.4 64.966 141.4C66.286 141.4 67.27 141.052 67.918 140.356C68.566 139.636 68.89 138.544 68.89 137.08V127.936C68.89 127.312 69.094 126.796 69.502 126.388C69.91 125.956 70.426 125.74 71.05 125.74ZM93.6549 118.36C94.2789 118.36 94.7949 118.564 95.2029 118.972C95.6109 119.38 95.8149 119.908 95.8149 120.556V142.804C95.8149 143.428 95.6109 143.956 95.2029 144.388C94.7949 144.796 94.2789 145 93.6549 145C93.0309 145 92.5149 144.796 92.1069 144.388C91.6989 143.956 91.4949 143.428 91.4949 142.804V141.04L92.2869 141.364C92.2869 141.676 92.1189 142.06 91.7829 142.516C91.4469 142.948 90.9909 143.38 90.4149 143.812C89.8389 144.244 89.1549 144.616 88.3629 144.928C87.5949 145.216 86.7549 145.36 85.8429 145.36C84.1869 145.36 82.6869 144.94 81.3429 144.1C79.9989 143.236 78.9309 142.06 78.1389 140.572C77.3709 139.06 76.9869 137.332 76.9869 135.388C76.9869 133.42 77.3709 131.692 78.1389 130.204C78.9309 128.692 79.9869 127.516 81.3069 126.676C82.6269 125.812 84.0909 125.38 85.6989 125.38C86.7309 125.38 87.6789 125.536 88.5429 125.848C89.4069 126.16 90.1509 126.556 90.7749 127.036C91.4229 127.516 91.9149 128.008 92.2509 128.512C92.6109 128.992 92.7909 129.4 92.7909 129.736L91.4949 130.204V120.556C91.4949 119.932 91.6989 119.416 92.1069 119.008C92.5149 118.576 93.0309 118.36 93.6549 118.36ZM86.3829 141.4C87.4389 141.4 88.3629 141.136 89.1549 140.608C89.9469 140.08 90.5589 139.36 90.9909 138.448C91.4469 137.536 91.6749 136.516 91.6749 135.388C91.6749 134.236 91.4469 133.204 90.9909 132.292C90.5589 131.38 89.9469 130.66 89.1549 130.132C88.3629 129.604 87.4389 129.34 86.3829 129.34C85.3509 129.34 84.4389 129.604 83.6469 130.132C82.8549 130.66 82.2309 131.38 81.7749 132.292C81.3429 133.204 81.1269 134.236 81.1269 135.388C81.1269 136.516 81.3429 137.536 81.7749 138.448C82.2309 139.36 82.8549 140.08 83.6469 140.608C84.4389 141.136 85.3509 141.4 86.3829 141.4ZM110.464 125.38C112.144 125.38 113.644 125.812 114.964 126.676C116.308 127.516 117.364 128.68 118.132 130.168C118.924 131.656 119.32 133.384 119.32 135.352C119.32 137.32 118.924 139.06 118.132 140.572C117.364 142.06 116.32 143.236 115 144.1C113.704 144.94 112.24 145.36 110.608 145.36C109.648 145.36 108.748 145.204 107.908 144.892C107.068 144.58 106.324 144.184 105.676 143.704C105.052 143.224 104.56 142.744 104.2 142.264C103.864 141.76 103.696 141.34 103.696 141.004L104.812 140.536V143.164C104.812 143.788 104.608 144.316 104.2 144.748C103.792 145.156 103.276 145.36 102.652 145.36C102.028 145.36 101.512 145.156 101.104 144.748C100.696 144.34 100.492 143.812 100.492 143.164V120.556C100.492 119.932 100.696 119.416 101.104 119.008C101.512 118.576 102.028 118.36 102.652 118.36C103.276 118.36 103.792 118.576 104.2 119.008C104.608 119.416 104.812 119.932 104.812 120.556V129.7L104.2 129.376C104.2 129.064 104.368 128.692 104.704 128.26C105.04 127.804 105.496 127.36 106.072 126.928C106.648 126.472 107.308 126.1 108.052 125.812C108.82 125.524 109.624 125.38 110.464 125.38ZM109.924 129.34C108.868 129.34 107.944 129.604 107.152 130.132C106.36 130.66 105.736 131.38 105.28 132.292C104.848 133.18 104.632 134.2 104.632 135.352C104.632 136.48 104.848 137.512 105.28 138.448C105.736 139.36 106.36 140.08 107.152 140.608C107.944 141.136 108.868 141.4 109.924 141.4C110.98 141.4 111.892 141.136 112.66 140.608C113.452 140.08 114.064 139.36 114.496 138.448C114.952 137.512 115.18 136.48 115.18 135.352C115.18 134.2 114.952 133.18 114.496 132.292C114.064 131.38 113.452 130.66 112.66 130.132C111.892 129.604 110.98 129.34 109.924 129.34ZM132.17 145.36C130.13 145.36 128.354 144.94 126.842 144.1C125.354 143.236 124.202 142.072 123.386 140.608C122.594 139.144 122.198 137.488 122.198 135.64C122.198 133.48 122.63 131.644 123.494 130.132C124.382 128.596 125.534 127.42 126.95 126.604C128.366 125.788 129.866 125.38 131.45 125.38C132.674 125.38 133.826 125.632 134.906 126.136C136.01 126.64 136.982 127.336 137.822 128.224C138.662 129.088 139.322 130.096 139.802 131.248C140.306 132.4 140.558 133.624 140.558 134.92C140.534 135.496 140.306 135.964 139.874 136.324C139.442 136.684 138.938 136.864 138.362 136.864H124.61L123.53 133.264H136.742L135.95 133.984V133.012C135.902 132.316 135.65 131.692 135.194 131.14C134.762 130.588 134.21 130.156 133.538 129.844C132.89 129.508 132.194 129.34 131.45 129.34C130.73 129.34 130.058 129.436 129.434 129.628C128.81 129.82 128.27 130.144 127.814 130.6C127.358 131.056 126.998 131.668 126.734 132.436C126.47 133.204 126.338 134.176 126.338 135.352C126.338 136.648 126.602 137.752 127.13 138.664C127.682 139.552 128.378 140.236 129.218 140.716C130.082 141.172 130.994 141.4 131.954 141.4C132.842 141.4 133.55 141.328 134.078 141.184C134.606 141.04 135.026 140.872 135.338 140.68C135.674 140.464 135.974 140.284 136.238 140.14C136.67 139.924 137.078 139.816 137.462 139.816C137.99 139.816 138.422 139.996 138.758 140.356C139.118 140.716 139.298 141.136 139.298 141.616C139.298 142.264 138.962 142.852 138.29 143.38C137.666 143.908 136.79 144.376 135.662 144.784C134.534 145.168 133.37 145.36 132.17 145.36ZM146.492 145C145.868 145 145.352 144.796 144.944 144.388C144.536 143.956 144.332 143.428 144.332 142.804V127.936C144.332 127.312 144.536 126.796 144.944 126.388C145.352 125.956 145.868 125.74 146.492 125.74C147.116 125.74 147.632 125.956 148.04 126.388C148.448 126.796 148.652 127.312 148.652 127.936V131.32L148.4 128.908C148.664 128.332 149 127.828 149.408 127.396C149.84 126.94 150.32 126.568 150.848 126.28C151.376 125.968 151.94 125.74 152.54 125.596C153.14 125.452 153.74 125.38 154.34 125.38C155.06 125.38 155.66 125.584 156.14 125.992C156.644 126.4 156.896 126.88 156.896 127.432C156.896 128.224 156.692 128.8 156.284 129.16C155.876 129.496 155.432 129.664 154.952 129.664C154.496 129.664 154.076 129.58 153.692 129.412C153.332 129.244 152.912 129.16 152.432 129.16C152 129.16 151.556 129.268 151.1 129.484C150.668 129.676 150.26 129.988 149.876 130.42C149.516 130.852 149.216 131.392 148.976 132.04C148.76 132.664 148.652 133.408 148.652 134.272V142.804C148.652 143.428 148.448 143.956 148.04 144.388C147.632 144.796 147.116 145 146.492 145ZM162.102 145C161.478 145 160.962 144.796 160.554 144.388C160.146 143.956 159.942 143.428 159.942 142.804V127.936C159.942 127.312 160.146 126.796 160.554 126.388C160.962 125.956 161.478 125.74 162.102 125.74C162.726 125.74 163.242 125.956 163.65 126.388C164.058 126.796 164.262 127.312 164.262 127.936V131.32L164.01 128.908C164.274 128.332 164.61 127.828 165.018 127.396C165.45 126.94 165.93 126.568 166.458 126.28C166.986 125.968 167.55 125.74 168.15 125.596C168.75 125.452 169.35 125.38 169.95 125.38C170.67 125.38 171.27 125.584 171.75 125.992C172.254 126.4 172.506 126.88 172.506 127.432C172.506 128.224 172.302 128.8 171.894 129.16C171.486 129.496 171.042 129.664 170.562 129.664C170.106 129.664 169.686 129.58 169.302 129.412C168.942 129.244 168.522 129.16 168.042 129.16C167.61 129.16 167.166 129.268 166.71 129.484C166.278 129.676 165.87 129.988 165.486 130.42C165.126 130.852 164.826 131.392 164.586 132.04C164.37 132.664 164.262 133.408 164.262 134.272V142.804C164.262 143.428 164.058 143.956 163.65 144.388C163.242 144.796 162.726 145 162.102 145ZM189.843 125.74C190.467 125.74 190.983 125.956 191.391 126.388C191.799 126.796 192.003 127.312 192.003 127.936V143.236C192.003 145.444 191.583 147.196 190.743 148.492C189.927 149.812 188.823 150.76 187.431 151.336C186.039 151.912 184.479 152.2 182.751 152.2C181.983 152.2 181.167 152.14 180.303 152.02C179.439 151.9 178.731 151.72 178.179 151.48C177.459 151.168 176.955 150.772 176.667 150.292C176.403 149.836 176.355 149.344 176.523 148.816C176.739 148.12 177.087 147.64 177.567 147.376C178.047 147.136 178.551 147.112 179.079 147.304C179.463 147.424 179.967 147.604 180.591 147.844C181.215 148.108 181.935 148.24 182.751 148.24C183.855 148.24 184.767 148.084 185.487 147.772C186.231 147.484 186.783 146.98 187.143 146.26C187.527 145.564 187.719 144.604 187.719 143.38V140.968L188.475 141.832C188.067 142.624 187.551 143.284 186.927 143.812C186.327 144.316 185.607 144.7 184.767 144.964C183.927 145.228 182.967 145.36 181.887 145.36C180.615 145.36 179.499 145.072 178.539 144.496C177.603 143.896 176.871 143.08 176.343 142.048C175.815 140.992 175.551 139.792 175.551 138.448V127.936C175.551 127.312 175.755 126.796 176.163 126.388C176.571 125.956 177.087 125.74 177.711 125.74C178.335 125.74 178.851 125.956 179.259 126.388C179.667 126.796 179.871 127.312 179.871 127.936V137.152C179.871 138.712 180.207 139.816 180.879 140.464C181.575 141.088 182.535 141.4 183.759 141.4C184.599 141.4 185.307 141.244 185.883 140.932C186.459 140.596 186.903 140.116 187.215 139.492C187.527 138.844 187.683 138.064 187.683 137.152V127.936C187.683 127.312 187.887 126.796 188.295 126.388C188.703 125.956 189.219 125.74 189.843 125.74ZM217.534 119.8C218.782 119.8 219.946 120.16 221.026 120.88C222.13 121.6 223.018 122.572 223.69 123.796C224.362 125.02 224.698 126.388 224.698 127.9C224.698 129.388 224.362 130.744 223.69 131.968C223.018 133.192 222.13 134.176 221.026 134.92C219.946 135.64 218.782 136 217.534 136H210.91L211.27 135.352V142.804C211.27 143.428 211.078 143.956 210.694 144.388C210.31 144.796 209.806 145 209.182 145C208.582 145 208.09 144.796 207.706 144.388C207.322 143.956 207.13 143.428 207.13 142.804V121.996C207.13 121.372 207.334 120.856 207.742 120.448C208.174 120.016 208.702 119.8 209.326 119.8H217.534ZM217.534 131.896C217.99 131.896 218.434 131.704 218.866 131.32C219.298 130.936 219.658 130.444 219.946 129.844C220.234 129.22 220.378 128.572 220.378 127.9C220.378 127.204 220.234 126.556 219.946 125.956C219.658 125.356 219.298 124.876 218.866 124.516C218.434 124.132 217.99 123.94 217.534 123.94H210.838L211.27 123.292V132.472L210.874 131.896H217.534ZM230.621 145C229.997 145 229.481 144.796 229.073 144.388C228.665 143.956 228.461 143.428 228.461 142.804V127.936C228.461 127.312 228.665 126.796 229.073 126.388C229.481 125.956 229.997 125.74 230.621 125.74C231.245 125.74 231.761 125.956 232.169 126.388C232.577 126.796 232.781 127.312 232.781 127.936V131.32L232.529 128.908C232.793 128.332 233.129 127.828 233.537 127.396C233.969 126.94 234.449 126.568 234.977 126.28C235.505 125.968 236.069 125.74 236.669 125.596C237.269 125.452 237.869 125.38 238.469 125.38C239.189 125.38 239.789 125.584 240.269 125.992C240.773 126.4 241.025 126.88 241.025 127.432C241.025 128.224 240.821 128.8 240.413 129.16C240.005 129.496 239.561 129.664 239.081 129.664C238.625 129.664 238.205 129.58 237.821 129.412C237.461 129.244 237.041 129.16 236.561 129.16C236.129 129.16 235.685 129.268 235.229 129.484C234.797 129.676 234.389 129.988 234.005 130.42C233.645 130.852 233.345 131.392 233.105 132.04C232.889 132.664 232.781 133.408 232.781 134.272V142.804C232.781 143.428 232.577 143.956 232.169 144.388C231.761 144.796 231.245 145 230.621 145ZM261.946 135.388C261.946 137.356 261.502 139.096 260.614 140.608C259.75 142.096 258.574 143.26 257.086 144.1C255.622 144.94 253.978 145.36 252.154 145.36C250.33 145.36 248.674 144.94 247.186 144.1C245.722 143.26 244.546 142.096 243.658 140.608C242.794 139.096 242.362 137.356 242.362 135.388C242.362 133.42 242.794 131.692 243.658 130.204C244.546 128.692 245.722 127.516 247.186 126.676C248.674 125.812 250.33 125.38 252.154 125.38C253.978 125.38 255.622 125.812 257.086 126.676C258.574 127.516 259.75 128.692 260.614 130.204C261.502 131.692 261.946 133.42 261.946 135.388ZM257.626 135.388C257.626 134.164 257.374 133.108 256.87 132.22C256.39 131.308 255.73 130.6 254.89 130.096C254.074 129.592 253.162 129.34 252.154 129.34C251.146 129.34 250.222 129.592 249.382 130.096C248.566 130.6 247.906 131.308 247.402 132.22C246.922 133.108 246.682 134.164 246.682 135.388C246.682 136.588 246.922 137.644 247.402 138.556C247.906 139.444 248.566 140.14 249.382 140.644C250.222 141.148 251.146 141.4 252.154 141.4C253.162 141.4 254.074 141.148 254.89 140.644C255.73 140.14 256.39 139.444 256.87 138.556C257.374 137.644 257.626 136.588 257.626 135.388ZM270.587 145.36C270.587 146.728 270.323 147.904 269.795 148.888C269.267 149.896 268.559 150.676 267.671 151.228C266.783 151.78 265.787 152.056 264.683 152.056C264.083 152.056 263.603 151.852 263.243 151.444C262.859 151.06 262.667 150.592 262.667 150.04V149.644C262.667 149.116 262.847 148.696 263.207 148.384C263.543 148.072 263.975 147.832 264.503 147.664C265.079 147.472 265.487 147.196 265.727 146.836C265.967 146.5 266.111 146.092 266.159 145.612C266.231 145.132 266.267 144.628 266.267 144.1V127.936C266.267 127.312 266.471 126.796 266.879 126.388C267.287 125.956 267.803 125.74 268.427 125.74C269.051 125.74 269.567 125.956 269.975 126.388C270.383 126.796 270.587 127.312 270.587 127.936V145.36ZM268.355 123.4C267.539 123.4 266.963 123.268 266.627 123.004C266.291 122.74 266.123 122.272 266.123 121.6V120.916C266.123 120.22 266.303 119.752 266.663 119.512C267.047 119.248 267.623 119.116 268.391 119.116C269.231 119.116 269.819 119.248 270.155 119.512C270.491 119.776 270.659 120.244 270.659 120.916V121.6C270.659 122.296 270.479 122.776 270.119 123.04C269.759 123.28 269.171 123.4 268.355 123.4ZM284.713 145.36C282.673 145.36 280.897 144.94 279.385 144.1C277.897 143.236 276.745 142.072 275.929 140.608C275.137 139.144 274.741 137.488 274.741 135.64C274.741 133.48 275.173 131.644 276.037 130.132C276.925 128.596 278.077 127.42 279.493 126.604C280.909 125.788 282.409 125.38 283.993 125.38C285.217 125.38 286.369 125.632 287.449 126.136C288.553 126.64 289.525 127.336 290.365 128.224C291.205 129.088 291.865 130.096 292.345 131.248C292.849 132.4 293.101 133.624 293.101 134.92C293.077 135.496 292.849 135.964 292.417 136.324C291.985 136.684 291.481 136.864 290.905 136.864H277.153L276.073 133.264H289.285L288.493 133.984V133.012C288.445 132.316 288.193 131.692 287.737 131.14C287.305 130.588 286.753 130.156 286.081 129.844C285.433 129.508 284.737 129.34 283.993 129.34C283.273 129.34 282.601 129.436 281.977 129.628C281.353 129.82 280.813 130.144 280.357 130.6C279.901 131.056 279.541 131.668 279.277 132.436C279.013 133.204 278.881 134.176 278.881 135.352C278.881 136.648 279.145 137.752 279.673 138.664C280.225 139.552 280.921 140.236 281.761 140.716C282.625 141.172 283.537 141.4 284.497 141.4C285.385 141.4 286.093 141.328 286.621 141.184C287.149 141.04 287.569 140.872 287.881 140.68C288.217 140.464 288.517 140.284 288.781 140.14C289.213 139.924 289.621 139.816 290.005 139.816C290.533 139.816 290.965 139.996 291.301 140.356C291.661 140.716 291.841 141.136 291.841 141.616C291.841 142.264 291.505 142.852 290.833 143.38C290.209 143.908 289.333 144.376 288.205 144.784C287.077 145.168 285.913 145.36 284.713 145.36ZM305.443 125.38C306.811 125.38 307.999 125.524 309.007 125.812C310.039 126.1 310.831 126.508 311.383 127.036C311.959 127.54 312.247 128.152 312.247 128.872C312.247 129.352 312.103 129.808 311.815 130.24C311.527 130.648 311.107 130.852 310.555 130.852C310.171 130.852 309.847 130.804 309.583 130.708C309.343 130.588 309.127 130.444 308.935 130.276C308.743 130.108 308.515 129.952 308.251 129.808C308.011 129.664 307.639 129.556 307.135 129.484C306.655 129.388 306.295 129.34 306.055 129.34C304.831 129.34 303.787 129.604 302.923 130.132C302.083 130.66 301.435 131.38 300.979 132.292C300.523 133.18 300.295 134.212 300.295 135.388C300.295 136.54 300.523 137.572 300.979 138.484C301.459 139.372 302.107 140.08 302.923 140.608C303.763 141.136 304.723 141.4 305.803 141.4C306.403 141.4 306.919 141.364 307.351 141.292C307.783 141.22 308.143 141.112 308.431 140.968C308.767 140.776 309.067 140.572 309.331 140.356C309.595 140.14 309.991 140.032 310.519 140.032C311.143 140.032 311.623 140.236 311.959 140.644C312.295 141.028 312.463 141.508 312.463 142.084C312.463 142.684 312.127 143.236 311.455 143.74C310.783 144.22 309.895 144.616 308.791 144.928C307.711 145.216 306.535 145.36 305.263 145.36C303.367 145.36 301.723 144.928 300.331 144.064C298.939 143.176 297.859 141.976 297.091 140.464C296.347 138.952 295.975 137.26 295.975 135.388C295.975 133.42 296.371 131.692 297.163 130.204C297.979 128.692 299.095 127.516 300.511 126.676C301.951 125.812 303.595 125.38 305.443 125.38ZM315.794 126.1H324.326C324.902 126.1 325.382 126.292 325.766 126.676C326.15 127.06 326.342 127.54 326.342 128.116C326.342 128.668 326.15 129.136 325.766 129.52C325.382 129.88 324.902 130.06 324.326 130.06H315.794C315.218 130.06 314.738 129.868 314.354 129.484C313.97 129.1 313.778 128.62 313.778 128.044C313.778 127.492 313.97 127.036 314.354 126.676C314.738 126.292 315.218 126.1 315.794 126.1ZM319.646 121.6C320.27 121.6 320.774 121.816 321.158 122.248C321.566 122.656 321.77 123.172 321.77 123.796V139.816C321.77 140.152 321.83 140.428 321.95 140.644C322.094 140.86 322.274 141.016 322.49 141.112C322.73 141.208 322.982 141.256 323.246 141.256C323.534 141.256 323.798 141.208 324.038 141.112C324.278 140.992 324.554 140.932 324.866 140.932C325.202 140.932 325.502 141.088 325.766 141.4C326.054 141.712 326.198 142.144 326.198 142.696C326.198 143.368 325.826 143.92 325.082 144.352C324.362 144.784 323.582 145 322.742 145C322.238 145 321.674 144.964 321.05 144.892C320.45 144.796 319.874 144.592 319.322 144.28C318.794 143.944 318.35 143.44 317.99 142.768C317.63 142.096 317.45 141.172 317.45 139.996V123.796C317.45 123.172 317.654 122.656 318.062 122.248C318.494 121.816 319.022 121.6 319.646 121.6Z" fill="white"/>
<path fill-rule="evenodd" clip-rule="evenodd" d="M171.276 84.2263C173.84 85.2348 176.622 85.7873 179.529 85.7873C184.821 85.7873 189.698 83.9573 193.596 80.8781C196.636 83.901 200.946 85.7877 205.725 85.7877C214.932 85.7877 222.396 78.7867 222.396 70.1505C222.396 61.5142 214.932 54.5132 205.725 54.5132C204.322 54.5132 202.959 54.6759 201.657 54.9822C198.761 45.2263 189.95 38.1309 179.529 38.1309C178.196 38.1309 176.889 38.247 175.617 38.4701C170.98 28.9633 161.826 22.4937 151.29 22.4937C137.55 22.4937 126.159 33.4975 124.074 47.8914C123.513 47.8382 122.946 47.8111 122.372 47.8111C112.225 47.8111 104 56.3123 104 66.7992C104 77.286 112.225 85.7873 122.372 85.7873C124.001 85.7873 125.581 85.5681 127.085 85.1567C132.136 88.7198 139.883 91.0001 148.57 91.0001C157.99 91.0001 166.306 88.3181 171.276 84.2263Z" fill="white"/>
<path d="M178.506 30.2467C175.471 22.8445 175.593 6.43221 200.352 0C193.07 12.6347 198.532 31.7782 178.506 30.2467Z" fill="white"/>
<path d="M191.938 34.1844C194.081 30.3106 201.218 24.722 212.624 33.358C204.625 34.511 198.253 43.4844 191.938 34.1844Z" fill="white"/>
</svg>
