<svg width="169" height="56" viewBox="0 0 169 56" fill="none" xmlns="http://www.w3.org/2000/svg">
<path d="M159.979 55.8089V44.2917H164.22C165.042 44.2917 165.723 44.4267 166.262 44.6966C166.801 44.9628 167.204 45.3246 167.472 45.782C167.74 46.2356 167.873 46.7474 167.873 47.3173C167.873 47.7971 167.785 48.202 167.608 48.532C167.43 48.8581 167.193 49.1206 166.895 49.3193C166.601 49.5142 166.277 49.6567 165.922 49.7467V49.8591C166.307 49.8779 166.682 50.0016 167.048 50.2303C167.417 50.4552 167.723 50.7758 167.964 51.1919C168.205 51.6081 168.326 52.1142 168.326 52.7103C168.326 53.2989 168.186 53.8275 167.907 54.2962C167.632 54.7611 167.206 55.1304 166.629 55.404C166.052 55.674 165.315 55.8089 164.418 55.8089H159.979ZM161.726 54.3187H164.248C165.085 54.3187 165.685 54.1575 166.047 53.835C166.409 53.5126 166.59 53.1096 166.59 52.626C166.59 52.2623 166.497 51.9286 166.313 51.625C166.128 51.3213 165.864 51.0795 165.521 50.8995C165.181 50.7196 164.778 50.6296 164.311 50.6296H161.726V54.3187ZM161.726 49.2743H164.067C164.459 49.2743 164.812 49.1993 165.125 49.0493C165.442 48.8994 165.692 48.6894 165.877 48.4195C166.066 48.1458 166.16 47.8234 166.16 47.4522C166.16 46.9761 165.992 46.5768 165.657 46.2544C165.321 45.932 164.806 45.7708 164.113 45.7708H161.726V49.2743Z" fill="white"/>
<path d="M155.685 44.2917H157.438V51.8668C157.438 52.6728 157.247 53.387 156.866 54.0094C156.486 54.628 155.95 55.1154 155.26 55.4715C154.57 55.8239 153.762 56.0001 152.834 56.0001C151.91 56.0001 151.104 55.8239 150.414 55.4715C149.724 55.1154 149.188 54.628 148.808 54.0094C148.427 53.387 148.236 52.6728 148.236 51.8668V44.2917H149.984V51.7262C149.984 52.2473 150.099 52.7103 150.329 53.1152C150.563 53.5201 150.892 53.8388 151.319 54.0712C151.745 54.2999 152.25 54.4143 152.834 54.4143C153.422 54.4143 153.929 54.2999 154.355 54.0712C154.785 53.8388 155.113 53.5201 155.34 53.1152C155.57 52.7103 155.685 52.2473 155.685 51.7262V44.2917Z" fill="white"/>
<path d="M139.247 55.8089V44.2917H140.995V54.3131H146.243V55.8089H139.247Z" fill="white"/>
<path d="M137.156 48.0368H135.392C135.324 47.6619 135.198 47.332 135.013 47.0471C134.828 46.7621 134.602 46.5203 134.334 46.3216C134.066 46.1229 133.767 45.973 133.435 45.8717C133.107 45.7705 132.758 45.7199 132.389 45.7199C131.721 45.7199 131.124 45.8867 130.596 46.2204C130.072 46.5541 129.657 47.0433 129.352 47.6882C129.05 48.333 128.899 49.1203 128.899 50.0501C128.899 50.9874 129.05 51.7784 129.352 52.4233C129.657 53.0681 130.074 53.5555 130.602 53.8854C131.129 54.2153 131.723 54.3803 132.383 54.3803C132.749 54.3803 133.096 54.3315 133.424 54.2341C133.755 54.1328 134.055 53.9848 134.323 53.7898C134.591 53.5948 134.817 53.3568 135.001 53.0756C135.19 52.7907 135.32 52.4645 135.392 52.0971L137.156 52.1027C137.062 52.6688 136.879 53.1899 136.608 53.6661C136.34 54.1385 135.995 54.5471 135.573 54.892C135.154 55.2332 134.675 55.4975 134.136 55.685C133.597 55.8724 133.009 55.9661 132.372 55.9661C131.369 55.9661 130.475 55.73 129.691 55.2576C128.907 54.7814 128.289 54.101 127.836 53.2162C127.387 52.3314 127.163 51.276 127.163 50.0501C127.163 48.8204 127.389 47.765 127.842 46.884C128.294 45.9992 128.912 45.3206 129.697 44.8482C130.481 44.3721 131.373 44.134 132.372 44.134C132.986 44.134 133.559 44.2221 134.091 44.3983C134.626 44.5708 135.107 44.8257 135.533 45.1632C135.959 45.4968 136.312 45.9055 136.591 46.3891C136.87 46.869 137.058 47.4182 137.156 48.0368Z" fill="white"/>
<path d="M111.526 44.2917H113.511L116.537 49.5273H116.661L119.687 44.2917H121.672L117.47 51.2875V55.8089H115.728V51.2875L111.526 44.2917Z" fill="white"/>
<path d="M100.6 55.8089V44.2917H102.347V49.2968H108.121V44.2917H109.874V55.8089H108.121V50.787H102.347V55.8089H100.6Z" fill="white"/>
<path d="M90.4131 55.8089V44.2917H94.5415C95.4426 44.2917 96.1892 44.4548 96.7811 44.781C97.373 45.1072 97.816 45.5533 98.1101 46.1194C98.4042 46.6818 98.5512 47.3154 98.5512 48.0202C98.5512 48.7288 98.4023 49.3661 98.1045 49.9322C97.8104 50.4946 97.3655 50.9408 96.7698 51.2707C96.1778 51.5968 95.4332 51.7599 94.5359 51.7599H91.6969V50.2865H94.3775C94.9468 50.2865 95.4087 50.1891 95.7631 49.9941C96.1175 49.7954 96.3777 49.5255 96.5436 49.1843C96.7094 48.8431 96.7924 48.4551 96.7924 48.0202C96.7924 47.5853 96.7094 47.1992 96.5436 46.8617C96.3777 46.5243 96.1156 46.26 95.7575 46.0688C95.403 45.8776 94.9355 45.782 94.3549 45.782H92.1606V55.8089H90.4131Z" fill="white"/>
<path d="M80.2397 55.8089H78.3848L82.5528 44.2917H84.5718L88.7398 55.8089H86.8849L83.6104 46.3837H83.5199L80.2397 55.8089ZM80.5508 51.2988H86.5681V52.7609H80.5508V51.2988Z" fill="white"/>
<path d="M68.9971 55.8089V44.2917H73.1255C74.0229 44.2917 74.7675 44.4455 75.3594 44.7529C75.9551 45.0603 76.4 45.4858 76.6941 46.0294C76.9882 46.5693 77.1352 47.1935 77.1352 47.9021C77.1352 48.6069 76.9863 49.2274 76.6884 49.7635C76.3944 50.2959 75.9495 50.7102 75.3538 51.0064C74.7618 51.3025 74.0172 51.4506 73.1199 51.4506H69.9924V49.9547H72.9615C73.5271 49.9547 73.987 49.8741 74.3414 49.7129C74.6996 49.5517 74.9616 49.3174 75.1275 49.01C75.2934 48.7025 75.3764 48.3333 75.3764 47.9021C75.3764 47.4672 75.2915 47.0904 75.1219 46.7718C74.956 46.4531 74.694 46.2094 74.3358 46.0407C73.9814 45.8682 73.5157 45.782 72.9389 45.782H70.7446V55.8089H68.9971ZM74.7147 50.6127L77.5763 55.8089H75.5856L72.7805 50.6127H74.7147Z" fill="white"/>
<path d="M64.907 47.93C64.7976 47.5888 64.6506 47.2833 64.4659 47.0133C64.2849 46.7396 64.0681 46.5072 63.8155 46.316C63.5629 46.121 63.2744 45.973 62.9502 45.8717C62.6297 45.7705 62.2772 45.7199 61.8926 45.7199C61.2404 45.7199 60.6522 45.8867 60.1281 46.2204C59.6041 46.5541 59.1894 47.0433 58.884 47.6882C58.5823 48.3293 58.4315 49.1147 58.4315 50.0445C58.4315 50.978 58.5842 51.7672 58.8896 52.412C59.195 53.0569 59.6135 53.5461 60.1451 53.8798C60.6767 54.2134 61.2819 54.3803 61.9605 54.3803C62.5901 54.3803 63.1387 54.2528 63.6062 53.9979C64.0775 53.7429 64.4413 53.383 64.6977 52.9181C64.9579 52.4495 65.088 51.8984 65.088 51.2648L65.5404 51.3491H62.2263V49.9151H66.7789V51.2254C66.7789 52.1927 66.5716 53.0325 66.1568 53.7448C65.7459 54.4534 65.1766 55.0008 64.4489 55.3869C63.725 55.7731 62.8955 55.9661 61.9605 55.9661C60.9124 55.9661 59.9924 55.7262 59.2007 55.2463C58.4127 54.7664 57.7981 54.086 57.357 53.2049C56.9159 52.3202 56.6953 51.2704 56.6953 50.0557C56.6953 49.1372 56.8235 48.3124 57.0799 47.5813C57.3363 46.8502 57.6963 46.2298 58.1601 45.7199C58.6276 45.2063 59.1762 44.8145 59.8058 44.5446C60.4392 44.2709 61.131 44.134 61.8813 44.134C62.5072 44.134 63.0897 44.2259 63.6289 44.4096C64.1718 44.5933 64.6544 44.8539 65.0766 45.1913C65.5027 45.5287 65.8552 45.9298 66.1342 46.3947C66.4132 46.8559 66.6017 47.3676 66.6997 47.93H64.907Z" fill="white"/>
<path d="M54.8893 50.0501C54.8893 51.2798 54.6631 52.337 54.2107 53.2218C53.7582 54.1029 53.138 54.7814 52.35 55.2576C51.5658 55.73 50.6742 55.9661 49.675 55.9661C48.6721 55.9661 47.7767 55.73 46.9887 55.2576C46.2045 54.7814 45.5862 54.101 45.1337 53.2162C44.6813 52.3314 44.4551 51.276 44.4551 50.0501C44.4551 48.8204 44.6813 47.765 45.1337 46.884C45.5862 45.9992 46.2045 45.3206 46.9887 44.8482C47.7767 44.3721 48.6721 44.134 49.675 44.134C50.6742 44.134 51.5658 44.3721 52.35 44.8482C53.138 45.3206 53.7582 45.9992 54.2107 46.884C54.6631 47.765 54.8893 48.8204 54.8893 50.0501ZM53.1588 50.0501C53.1588 49.1128 53.0061 48.3236 52.7007 47.6825C52.3991 47.0377 51.9843 46.5503 51.4565 46.2204C50.9324 45.8867 50.3386 45.7199 49.675 45.7199C49.0077 45.7199 48.412 45.8867 47.8879 46.2204C47.3638 46.5503 46.9491 47.0377 46.6437 47.6825C46.3421 48.3236 46.1913 49.1128 46.1913 50.0501C46.1913 50.9874 46.3421 51.7784 46.6437 52.4233C46.9491 53.0644 47.3638 53.5517 47.8879 53.8854C48.412 54.2153 49.0077 54.3803 49.675 54.3803C50.3386 54.3803 50.9324 54.2153 51.4565 53.8854C51.9843 53.5517 52.3991 53.0644 52.7007 52.4233C53.0061 51.7784 53.1588 50.9874 53.1588 50.0501Z" fill="white"/>
<path d="M34.3818 45.7876V44.2917H43.3457V45.7876H39.7319V55.8089H37.99V45.7876H34.3818Z" fill="white"/>
<path d="M33.2721 50.0501C33.2721 51.2798 33.0459 52.337 32.5935 53.2218C32.141 54.1029 31.5208 54.7814 30.7329 55.2576C29.9486 55.73 29.057 55.9661 28.0578 55.9661C27.0549 55.9661 26.1595 55.73 25.3715 55.2576C24.5873 54.7814 23.969 54.101 23.5165 53.2162C23.0641 52.3314 22.8379 51.276 22.8379 50.0501C22.8379 48.8204 23.0641 47.765 23.5165 46.884C23.969 45.9992 24.5873 45.3206 25.3715 44.8482C26.1595 44.3721 27.0549 44.134 28.0578 44.134C29.057 44.134 29.9486 44.3721 30.7329 44.8482C31.5208 45.3206 32.141 45.9992 32.5935 46.884C33.0459 47.765 33.2721 48.8204 33.2721 50.0501ZM31.5416 50.0501C31.5416 49.1128 31.3889 48.3236 31.0835 47.6825C30.7819 47.0377 30.3671 46.5503 29.8393 46.2204C29.3152 45.8867 28.7214 45.7199 28.0578 45.7199C27.3905 45.7199 26.7948 45.8867 26.2707 46.2204C25.7467 46.5503 25.3319 47.0377 25.0265 47.6825C24.7249 48.3236 24.5741 49.1128 24.5741 50.0501C24.5741 50.9874 24.7249 51.7784 25.0265 52.4233C25.3319 53.0644 25.7467 53.5517 26.2707 53.8854C26.7948 54.2153 27.3905 54.3803 28.0578 54.3803C28.7214 54.3803 29.3152 54.2153 29.8393 53.8854C30.3671 53.5517 30.7819 53.0644 31.0835 52.4233C31.3889 51.7784 31.5416 50.9874 31.5416 50.0501Z" fill="white"/>
<path d="M11.3916 55.8089V44.2917H13.1391V49.2968H18.9133V44.2917H20.6665V55.8089H18.9133V50.787H13.1391V55.8089H11.3916Z" fill="white"/>
<path d="M1.2041 55.8089V44.2917H5.33255C6.23365 44.2917 6.98017 44.4548 7.5721 44.781C8.16403 45.1072 8.60704 45.5533 8.90112 46.1194C9.1952 46.6818 9.34225 47.3154 9.34225 48.0202C9.34225 48.7288 9.19332 49.3661 8.89547 49.9322C8.60139 50.4946 8.15649 50.9408 7.56079 51.2707C6.96886 51.5968 6.22423 51.7599 5.3269 51.7599H2.48788V50.2865H5.16855C5.73786 50.2865 6.19972 50.1891 6.55412 49.9941C6.90853 49.7954 7.16868 49.5255 7.33457 49.1843C7.50046 48.8431 7.58341 48.4551 7.58341 48.0202C7.58341 47.5853 7.50046 47.1992 7.33457 46.8617C7.16868 46.5243 6.90665 46.26 6.54847 46.0688C6.19406 45.8776 5.72655 45.782 5.14593 45.782H2.95162V55.8089H1.2041Z" fill="white"/>
<path d="M159.793 11.2698C159.894 10.1563 159.623 9.28461 158.978 8.65476C158.334 8.01367 157.248 7.69312 155.721 7.69312C154.748 7.69312 153.934 7.80559 153.278 8.03054C152.633 8.25549 152.13 8.56479 151.768 8.95844C151.417 9.35209 151.196 9.80761 151.106 10.325C151.004 10.7299 151.01 11.101 151.123 11.4385C151.247 11.7646 151.479 12.0627 151.819 12.3326C152.169 12.6026 152.627 12.8444 153.193 13.0581C153.77 13.2718 154.454 13.463 155.246 13.6317L157.96 14.239C159.815 14.6439 161.371 15.1782 162.626 15.8418C163.893 16.4941 164.888 17.2702 165.612 18.1699C166.336 19.0697 166.811 20.0764 167.037 21.1898C167.275 22.3033 167.28 23.518 167.054 24.8339C166.67 27.1059 165.782 29.0292 164.39 30.6038C162.999 32.1784 161.184 33.3762 158.944 34.1973C156.705 35.0183 154.115 35.4289 151.174 35.4289C148.165 35.4289 145.609 34.9846 143.505 34.0961C141.413 33.1963 139.897 31.8241 138.958 29.9796C138.031 28.1238 137.804 25.7562 138.279 22.8769H147.238C147.102 23.9342 147.215 24.8227 147.577 25.5425C147.939 26.2623 148.521 26.8078 149.324 27.179C150.128 27.5502 151.129 27.7357 152.327 27.7357C153.345 27.7357 154.216 27.612 154.94 27.3646C155.664 27.1171 156.235 26.7741 156.654 26.3355C157.072 25.8968 157.327 25.3963 157.417 24.8339C157.508 24.3166 157.417 23.8554 157.146 23.4505C156.874 23.0456 156.382 22.6801 155.67 22.3539C154.957 22.0278 153.979 21.7297 152.735 21.4598L149.409 20.7174C146.457 20.0426 144.229 18.9291 142.725 17.377C141.22 15.8249 140.689 13.6992 141.13 10.9998C141.492 8.79535 142.402 6.87207 143.861 5.22997C145.332 3.57663 147.198 2.29444 149.46 1.38341C151.734 0.461137 154.25 0 157.01 0C159.815 0 162.162 0.466761 164.051 1.40028C165.951 2.33381 167.314 3.64411 168.14 5.3312C168.977 7.01829 169.203 8.9978 168.819 11.2698H159.793Z" fill="white"/>
<path d="M128.977 0.472412H138.41L134.711 22.607C134.281 25.2389 133.275 27.5164 131.691 29.4397C130.119 31.3518 128.117 32.8308 125.685 33.8768C123.253 34.9115 120.55 35.4289 117.575 35.4289C114.578 35.4289 112.044 34.9115 109.974 33.8768C107.905 32.8308 106.4 31.3518 105.461 29.4397C104.534 27.5164 104.285 25.2389 104.715 22.607L108.414 0.472412H117.847L114.284 21.7972C114.114 22.8657 114.199 23.8161 114.538 24.6484C114.878 25.4807 115.426 26.1386 116.184 26.6223C116.942 27.0947 117.858 27.3309 118.933 27.3309C120.018 27.3309 121.019 27.0947 121.936 26.6223C122.863 26.1386 123.632 25.4807 124.243 24.6484C124.854 23.8161 125.244 22.8657 125.414 21.7972L128.977 0.472412Z" fill="white"/>
<path d="M101.929 13.4292H92.4961C92.5639 12.6307 92.5187 11.9108 92.3603 11.2698C92.202 10.6287 91.9305 10.0775 91.546 9.61641C91.1614 9.14402 90.6581 8.78411 90.036 8.53667C89.4139 8.28923 88.673 8.16551 87.8134 8.16551C86.162 8.16551 84.6859 8.57603 83.3852 9.39708C82.0844 10.2069 81.0043 11.371 80.1446 12.8894C79.285 14.3965 78.6742 16.196 78.3123 18.288C77.9956 20.3125 77.9843 21.994 78.2784 23.3324C78.5837 24.6709 79.1776 25.6719 80.0598 26.3355C80.9534 26.999 82.1127 27.3308 83.5379 27.3308C84.488 27.3308 85.3589 27.2184 86.1507 26.9934C86.9538 26.7685 87.6663 26.4479 88.2884 26.0318C88.9218 25.6044 89.4591 25.0982 89.9002 24.5134C90.3527 23.9173 90.6976 23.2593 90.9352 22.5395H100.436C100.074 24.0016 99.4296 25.4975 98.5021 27.0272C97.5746 28.5455 96.3757 29.9458 94.9053 31.228C93.4349 32.4989 91.7043 33.5281 89.7136 34.3154C87.7229 35.1027 85.4834 35.4963 82.995 35.4963C79.7375 35.4963 76.9267 34.7878 74.5627 33.3706C72.2101 31.9535 70.5022 29.884 69.4389 27.1621C68.387 24.4403 68.1778 21.1223 68.8112 17.2083C69.4446 13.4292 70.6944 10.2631 72.5607 7.70999C74.427 5.15687 76.6948 3.23359 79.3642 1.94015C82.0336 0.646717 84.8726 0 87.8812 0C90.1547 0 92.1907 0.298052 93.9891 0.894156C95.7988 1.49026 97.3201 2.36192 98.553 3.50914C99.7972 4.64512 100.713 6.0454 101.302 7.70999C101.89 9.37459 102.099 11.281 101.929 13.4292Z" fill="white"/>
<path d="M64.3452 18.3555C63.7118 22.1121 62.4563 25.2613 60.5787 27.8032C58.7011 30.3451 56.4219 32.2628 53.7413 33.5562C51.0606 34.8496 48.1933 35.4963 45.1394 35.4963C41.8819 35.4963 39.0542 34.7934 36.6563 33.3875C34.2584 31.9816 32.5108 29.9233 31.4137 27.2127C30.3165 24.5021 30.096 21.1898 30.752 17.2758C31.3628 13.5192 32.607 10.3587 34.4846 7.79435C36.3622 5.22998 38.6526 3.28982 41.3559 1.97389C44.0592 0.657965 46.9491 0 50.0257 0C53.2606 0 56.0713 0.708577 58.4579 2.12573C60.8558 3.54289 62.5977 5.618 63.6835 8.35109C64.7806 11.0842 65.0012 14.419 64.3452 18.3555ZM54.8441 17.2758C55.1608 15.2963 55.1834 13.6317 54.9119 12.282C54.6405 10.9211 54.0693 9.89759 53.1984 9.2115C52.3274 8.51417 51.1567 8.16551 49.6863 8.16551C48.0123 8.16551 46.5306 8.57041 45.2412 9.38021C43.9518 10.19 42.8829 11.3541 42.0346 12.8725C41.1863 14.3909 40.5924 16.2185 40.2531 18.3555C39.8912 20.3575 39.8572 22.0221 40.1513 23.3493C40.4567 24.6765 41.0562 25.6719 41.9497 26.3355C42.8546 26.999 44.0309 27.3308 45.4787 27.3308C47.1301 27.3308 48.5892 26.9372 49.856 26.1499C51.1341 25.3626 52.1917 24.221 53.0287 22.7251C53.877 21.2292 54.4821 19.4128 54.8441 17.2758Z" fill="white"/>
<path d="M0 35.024L5.76852 0.472412H30.1999L28.9105 8.03057H13.9123L12.9622 13.9691H26.4673L25.1779 21.5273H11.6728L9.43323 35.024H0Z" fill="white"/>
</svg>
