<svg width="214" height="75" viewBox="0 0 214 75" fill="none" xmlns="http://www.w3.org/2000/svg">
<path d="M1.92 44.936C1.92 34.184 8 26.696 19.456 26.696C27.264 26.696 33.088 31.112 33.088 35.464C33.088 38.152 31.104 39.496 28.736 39.496C24.32 39.496 25.92 33.992 19.2 33.992C15.552 33.992 11.264 36.488 11.264 44.936C11.264 50.76 14.016 54.536 19.136 54.536C25.664 54.536 24.256 48.52 29.184 48.52C31.552 48.52 33.088 50.248 33.088 52.104C33.088 56.2 28.48 61.832 18.88 61.832C7.36 61.832 1.92 54.728 1.92 44.936ZM38.087 57.16V18.76C38.087 15.688 39.943 14.088 42.759 14.088C45.575 14.088 47.431 15.688 47.431 18.76V31.624H47.559C49.415 29.192 52.679 26.696 57.991 26.696C63.623 26.696 69.767 29.512 69.767 38.984V57.16C69.767 59.656 68.743 61.832 65.095 61.832C61.447 61.832 60.423 59.656 60.423 57.16V40.84C60.423 37.064 58.567 34.376 54.535 34.376C51.271 34.376 47.431 37.064 47.431 41.736V57.16C47.431 59.656 46.407 61.832 42.759 61.832C39.111 61.832 38.087 59.656 38.087 57.16ZM106.268 46.024H85.148C85.148 50.952 88.348 54.536 93.788 54.536C100.828 54.536 100.828 49.928 104.604 49.928C106.844 49.928 108.444 51.848 108.444 53.576C108.444 59.208 99.42 61.832 93.788 61.832C80.732 61.832 75.804 53 75.804 44.872C75.804 33.992 82.396 26.696 93.468 26.696C104.22 26.696 110.364 34.312 110.364 41.992C110.364 45.192 109.404 46.024 106.268 46.024ZM85.148 40.648H101.532C101.02 36.36 97.82 33.224 93.66 33.224C88.988 33.224 86.172 36.104 85.148 40.648ZM116.911 57.16V31.048C116.911 28.232 118.768 26.696 121.135 26.696C123.504 26.696 125.36 28.232 125.36 31.048V34.632H125.488C126.576 30.728 128.688 26.696 133.232 26.696C136.176 26.696 138.352 28.616 138.352 31.24C138.352 34.696 136.048 35.912 133.744 35.912H132.08C128.304 35.912 126.256 38.536 126.256 46.28V57.16C126.256 59.656 125.232 61.832 121.584 61.832C117.936 61.832 116.911 59.656 116.911 57.16ZM142.974 57.16V31.048C142.974 28.232 144.83 26.696 147.198 26.696C149.566 26.696 151.422 28.232 151.422 31.048V34.632H151.55C152.638 30.728 154.75 26.696 159.294 26.696C162.238 26.696 164.414 28.616 164.414 31.24C164.414 34.696 162.11 35.912 159.806 35.912H158.142C154.366 35.912 152.318 38.536 152.318 46.28V57.16C152.318 59.656 151.294 61.832 147.646 61.832C143.998 61.832 142.974 59.656 142.974 57.16ZM174.925 30.216L180.941 52.04H181.069L186.765 30.856C187.405 28.488 188.685 26.696 191.245 26.696C194.957 26.696 196.045 29.768 196.045 30.92C196.045 31.688 195.789 32.648 195.341 33.864L184.525 64.52C182.285 70.92 179.725 74.248 173.837 74.248C169.677 74.248 167.949 72.2 167.949 69.96C167.949 67.464 169.741 66.184 172.237 66.184H173.197C174.413 66.184 175.757 66.12 176.461 63.24L166.733 35.528C165.965 33.288 165.581 32.264 165.581 31.176C165.581 28.616 167.629 26.696 170.125 26.696C172.621 26.696 174.349 28.104 174.925 30.216ZM198.982 56.2C198.982 53.32 201.35 50.952 204.23 50.952C207.11 50.952 209.478 53.32 209.478 56.2C209.478 59.08 207.11 61.448 204.23 61.448C201.35 61.448 198.982 59.08 198.982 56.2Z" fill="#EC1C23"/>
<path d="M104.885 19.9107C103.291 11.2189 109.046 2.8814 117.738 1.28832L124.766 0.000230425L125.011 1.33658C126.604 10.0283 120.849 18.3659 112.157 19.9589L105.129 21.247L104.885 19.9107Z" fill="#1F8D15"/>
</svg>
