<svg width="248" height="46" viewBox="0 0 248 46" fill="none" xmlns="http://www.w3.org/2000/svg">
<g clip-path="url(#clip0_10_7632)">
<path d="M1.54688 32.1609C1.54688 32.1609 1.55593 32.1789 1.56046 32.1924V32.1609H1.54688Z" fill="white"/>
<path d="M135.506 21.1225C133.852 20.1239 131.646 19.6002 128.473 19.4759V1.77538C128.473 0.794481 127.658 0 126.673 0C125.349 0 124.489 0.989772 123.909 2.10826C123.245 1.55345 122.572 1.21169 121.761 1.34929C121.12 1.46025 120.571 1.8819 120.304 2.48109C120.063 3.00482 120.077 3.51525 120.103 4.22096C120.166 6.06291 120.268 9.13875 116.36 11.1139C108.2 14.4427 105.588 20.1239 105.29 21.6108C105.29 21.6152 105.29 21.6196 105.29 21.6241C105.272 21.6729 105.254 21.7439 105.227 21.8327C103.507 27.3985 104.354 32.7646 107.736 37.78C112.848 45.3564 122.653 46 125.821 46C126.254 46 126.566 45.9867 126.722 45.9822C127.693 45.9645 128.478 45.1744 128.478 44.2069V36.2976C132.239 36.1955 134.935 35.3122 136.696 33.6123C138.171 32.1876 138.92 30.2569 138.92 27.8734C138.92 24.7621 137.77 22.494 135.51 21.1225H135.506ZM120.447 27.8734C120.447 25.6009 122.22 23.6303 124.685 22.8802V32.8178C122.194 32.0367 120.447 30.1059 120.447 27.8734ZM124.908 20.5322C121.044 21.2956 118.218 24.2694 118.218 27.8734C118.218 31.4774 120.986 34.3447 124.894 35.1746H124.908V38.6056C122.002 37.9709 118.704 36.6571 116.636 33.9629C114.225 30.825 113.615 27.4828 114.827 24.0386C114.894 23.8477 114.938 23.719 114.956 23.6169C114.969 23.5814 116.297 19.7733 122.947 17.412C122.969 17.4031 122.996 17.3942 123.018 17.3854C123.727 17.0791 124.355 16.724 124.908 16.3246V20.5322ZM124.908 42.4182C121.677 42.2628 114.386 41.2819 110.691 35.8005C107.937 31.7171 107.242 27.3674 108.628 22.8757C108.703 22.636 108.752 22.4718 108.784 22.3032C108.864 22.0591 110.495 17.3232 117.773 14.3761C117.813 14.3584 117.857 14.3406 117.897 14.3184C122.073 12.2412 123.263 9.07217 123.58 6.67098C123.967 6.93284 124.391 7.066 124.908 6.98167V13.1644C124.351 14.0565 123.437 14.7756 122.158 15.3393C115.206 17.8203 113.022 22.0502 112.781 23.1376C112.768 23.1775 112.75 23.2352 112.723 23.3063C110.887 28.5303 112.875 32.7202 114.867 35.3122C117.443 38.6721 121.494 40.1945 124.908 40.8736V42.4182ZM133.897 30.7451C132.939 31.6727 131.201 32.1876 128.696 32.2897V23.4882C130.893 23.6036 132.453 23.9498 133.424 24.5401C134.155 24.9795 134.904 25.7252 134.904 27.8734C134.904 29.1517 134.574 30.0926 133.897 30.7451Z" fill="white"/>
<path d="M17.875 33.6166V22.6404H21.4537V33.6166C21.4537 36.3197 22.8531 37.9352 25.6207 37.9352C28.3883 37.9352 29.8189 36.3197 29.8189 33.6166V22.6404H33.3173V33.6166C33.3173 38.2681 30.5765 41.2241 25.6519 41.2241C20.7273 41.2241 17.875 38.2992 17.875 33.6166Z" fill="white" stroke="white" stroke-linecap="round" stroke-linejoin="round"/>
<path d="M36.625 22.636H44.2905C48.9343 22.636 50.9755 25.1703 50.9755 28.6545C50.9755 31.5217 49.6028 33.5013 47.1427 34.3091L51.6484 40.8558H47.3968L43.5105 34.6997H40.2082V40.8558H36.6295V22.636H36.625ZM44.3439 31.3842C46.6079 31.3842 47.3656 30.2124 47.3656 28.6545C47.3656 27.0966 46.6079 25.9515 44.3439 25.9515H40.2037V31.3842H44.3439Z" fill="white" stroke="white" stroke-linecap="round" stroke-linejoin="round"/>
<path d="M54.1387 22.636H61.608C66.3633 22.636 68.4891 25.2547 68.4891 28.8232C68.4891 32.3917 66.3633 35.0104 61.608 35.0104H57.7218V40.8602H54.1431V22.6404L54.1387 22.636ZM61.666 31.717C64.0458 31.717 64.8569 30.492 64.8569 28.8187C64.8569 27.1454 64.0458 25.9471 61.666 25.9471H57.7218V31.7126H61.666V31.717Z" fill="white" stroke="white" stroke-linecap="round" stroke-linejoin="round"/>
<path d="M70.9551 22.636H74.5338V37.5713H84.1022V40.8602H70.9551V22.6404V22.636Z" fill="white" stroke="white" stroke-linecap="round" stroke-linejoin="round"/>
<path d="M86.7051 22.636H100.191V25.9515H90.2882V30.0216H98.5687V33.1995H90.2882V37.5758H100.191V40.8647H86.7051V22.6449V22.636Z" fill="white" stroke="white" stroke-linecap="round" stroke-linejoin="round"/>
<path d="M0.222656 22.2766H7.69203C12.4473 22.2766 14.5731 24.8953 14.5731 28.4638C14.5731 32.0323 12.4473 34.651 7.69203 34.651H3.80581V40.5008H0.222656V22.2811V22.2766ZM7.74996 31.3577C10.1298 31.3577 10.9409 30.1327 10.9409 28.4594C10.9409 26.7861 10.1298 25.5877 7.74996 25.5877H3.80581V31.3532H7.74996V31.3577Z" fill="white" stroke="white" stroke-linecap="round" stroke-linejoin="round"/>
<path d="M143.082 23H150.748C155.391 23 157.432 25.5343 157.432 29.0185C157.432 31.8858 156.06 33.8653 153.6 34.6731L158.105 41.2198H153.854L149.968 35.0637H146.665V41.2198H143.086V23H143.082ZM150.801 31.7482C153.065 31.7482 153.823 30.5764 153.823 29.0185C153.823 27.4606 153.065 26.3155 150.801 26.3155H146.661V31.7482H150.801Z" fill="white" stroke="white" stroke-linecap="round" stroke-linejoin="round"/>
<path d="M159.562 32.112C159.562 26.6527 163.591 22.6404 169.296 22.6404C175 22.6404 179.029 26.6527 179.029 32.112C179.029 37.5713 175 41.5836 169.296 41.5836C163.591 41.5836 159.562 37.5713 159.562 32.112ZM175.397 32.112C175.397 28.5479 172.937 25.9559 169.296 25.9559C165.655 25.9559 163.199 28.5479 163.199 32.112C163.199 35.6761 165.659 38.2992 169.296 38.2992C172.932 38.2992 175.397 35.6805 175.397 32.112Z" fill="white" stroke="white" stroke-linecap="round" stroke-linejoin="round"/>
<path d="M180.574 34.7574V34.6154H184.073V34.7574C184.073 36.9855 185.191 38.2949 187.513 38.2949C189.835 38.2949 190.9 36.9855 190.9 34.7574V23H194.479V34.7574C194.479 38.9074 191.988 41.5838 187.487 41.5838C182.985 41.5838 180.579 38.9074 180.579 34.7574H180.574Z" fill="white" stroke="white" stroke-linecap="round" stroke-linejoin="round"/>
<path d="M197.809 23H211.294V26.3155H201.392V30.3856H209.672V33.5635H201.392V37.9398H211.294V41.2287H197.809V23.0089V23Z" fill="white" stroke="white" stroke-linecap="round" stroke-linejoin="round"/>
<path d="M213.531 32.112C213.531 26.6527 217.56 22.6404 223.265 22.6404C228.047 22.6404 231.656 25.4544 232.69 29.6043H228.916C228.047 27.4028 225.979 25.9559 223.265 25.9559C219.628 25.9559 217.168 28.5479 217.168 32.112C217.168 35.6761 219.628 38.2992 223.265 38.2992C225.979 38.2992 228.047 36.8212 228.916 34.6197H232.69C231.656 38.7697 228.047 41.5836 223.265 41.5836C217.56 41.5836 213.531 37.5713 213.531 32.112Z" fill="white" stroke="white" stroke-linecap="round" stroke-linejoin="round"/>
<path d="M238.738 26.3155H233.283V23H247.776V26.3155H242.321V41.2198H238.743V26.3155H238.738Z" fill="white" stroke="white" stroke-linecap="round" stroke-linejoin="round"/>
</g>
<defs>
<clipPath id="clip0_10_7632">
<rect width="248" height="46" fill="white"/>
</clipPath>
</defs>
</svg>
