<svg width="174" height="74" viewBox="0 0 174 74" fill="none" xmlns="http://www.w3.org/2000/svg">
<g clip-path="url(#clip0_10_7665)">
<path d="M99.8277 13.84C99.8277 16.8057 98.3681 19.5314 95.9236 21.6857V38.8571H89.9913V21.6857C92.3771 19.5314 93.8016 16.8057 93.8016 13.84C93.8016 7.49711 87.2655 2.23425 78.7363 1.29711C79.6567 1.19425 80.6004 1.14282 81.5618 1.14282C91.6503 1.14282 99.8277 6.82854 99.8277 13.84Z" stroke="white" stroke-width="3" stroke-miterlimit="10" stroke-linejoin="round"/>
<path d="M75.9874 1.14282C76.9195 1.14282 77.8398 1.19425 78.7367 1.29711C87.2658 2.23425 93.8019 7.49711 93.8019 13.84C93.8019 16.8057 92.3775 19.5314 89.9917 21.6857V38.8571H61.9831V21.6857C59.5973 19.5314 58.1729 16.8057 58.1729 13.84C58.1729 6.82854 66.151 1.14282 75.9874 1.14282Z" stroke="white" stroke-width="3" stroke-miterlimit="10" stroke-linejoin="round"/>
</g>
<path d="M157.46 59.585C157.591 59.1908 157.798 58.8528 158.08 58.5712C158.38 58.2895 158.699 58.0549 159.037 57.8671C159.394 57.6606 159.76 57.4916 160.135 57.3602C160.511 57.2287 160.868 57.1161 161.206 57.0222C161.957 56.703 162.755 56.4026 163.6 56.121C164.463 55.8206 165.336 55.5577 166.219 55.3324C167.12 55.1071 168.04 54.9663 168.979 54.91C169.917 54.8349 170.903 54.9475 171.936 55.2479C171.992 55.4357 172.077 55.6141 172.189 55.783C172.302 55.952 172.415 56.121 172.527 56.29C172.659 56.4589 172.771 56.6279 172.865 56.7969C172.959 56.9471 173.015 57.1067 173.034 57.2757C173.222 57.4447 173.372 57.6324 173.485 57.8389C173.597 58.0267 173.616 58.2802 173.541 58.5993C173.353 58.7495 173.166 58.8904 172.978 59.0218C172.809 59.1344 172.621 59.2377 172.415 59.3316C171.72 59.1626 171.016 59.1063 170.302 59.1626C169.589 59.2189 168.951 59.2659 168.387 59.3034C168.218 59.1344 168.012 59.0499 167.768 59.0499C167.542 59.0499 167.298 59.0875 167.035 59.1626C166.791 59.2377 166.538 59.3128 166.275 59.3879C166.031 59.463 165.796 59.4818 165.571 59.4442C165.383 59.5944 165.149 59.6977 164.867 59.754C164.604 59.7916 164.313 59.8291 163.994 59.8667C163.975 59.9606 163.994 60.0263 164.05 60.0638C164.106 60.0826 164.116 60.1389 164.078 60.2328C164.191 60.3642 164.332 60.4581 164.501 60.5144C164.689 60.5708 164.876 60.6271 165.064 60.6834C165.271 60.7397 165.449 60.8148 165.599 60.9087C165.749 60.9838 165.853 61.1152 165.909 61.303C166.191 61.303 166.435 61.3687 166.641 61.5001C166.848 61.6316 167.017 61.7912 167.148 61.9789C167.28 62.1667 167.373 62.3732 167.43 62.5985C167.505 62.805 167.542 62.9928 167.542 63.1618C167.599 63.312 167.664 63.3777 167.74 63.3589C167.815 63.3401 167.899 63.3777 167.993 63.4715C168.049 63.7156 168.19 63.9691 168.415 64.232C168.641 64.476 168.819 64.7483 168.951 65.0487C168.988 65.5181 169.016 65.9405 169.035 66.316C169.054 66.6727 168.988 67.0389 168.838 67.4144C168.556 68.1091 168.162 68.7287 167.655 69.2731C167.167 69.8176 166.604 70.3058 165.965 70.7376C165.346 71.1507 164.679 71.5074 163.966 71.8078C163.252 72.1082 162.558 72.3617 161.882 72.5682C161.806 72.5494 161.731 72.5494 161.656 72.5682C161.581 72.587 161.562 72.5401 161.6 72.4274C161.45 72.5588 161.281 72.6433 161.093 72.6809C160.924 72.7184 160.736 72.7278 160.53 72.709C160.323 72.709 160.107 72.6996 159.882 72.6809C159.675 72.6621 159.478 72.6715 159.291 72.709C159.159 72.5776 159.037 72.4462 158.924 72.3147C158.831 72.2021 158.755 72.0519 158.699 71.8641C158.605 71.8641 158.558 71.8172 158.558 71.7233C158.577 71.6294 158.549 71.5825 158.474 71.5825C158.587 71.3948 158.633 71.2915 158.615 71.2727C158.615 71.2352 158.587 71.207 158.53 71.1882C158.493 71.1694 158.455 71.1507 158.418 71.1319C158.38 71.0943 158.371 71.0474 158.389 70.9911C158.464 70.8409 158.493 70.6719 158.474 70.4841C158.455 70.2776 158.436 70.0711 158.418 69.8646C158.399 69.658 158.408 69.4609 158.446 69.2731C158.502 69.0854 158.643 68.9352 158.868 68.8225C159.507 68.8976 160.107 68.8789 160.671 68.7662C161.253 68.6348 161.797 68.4564 162.304 68.2311C162.811 68.0058 163.29 67.7617 163.74 67.4989C164.21 67.236 164.67 67.0013 165.12 66.7948C165.177 66.6258 165.252 66.485 165.346 66.3723C165.458 66.2597 165.571 66.1564 165.684 66.0625C165.796 65.9687 165.9 65.8654 165.993 65.7528C166.087 65.6401 166.153 65.4993 166.191 65.3303C166.209 65.1989 166.172 65.1238 166.078 65.105C166.003 65.0675 165.965 64.9924 165.965 64.8797L165.655 64.7952C165.299 64.5887 164.895 64.4197 164.444 64.2883C163.994 64.1381 163.609 63.9785 163.29 63.8095C163.083 63.9222 162.886 63.9503 162.698 63.894C162.529 63.8377 162.304 63.7813 162.022 63.725C161.384 63.6875 160.764 63.6218 160.164 63.5279C159.582 63.434 159.018 63.265 158.474 63.0209C158.436 62.9271 158.389 62.8426 158.333 62.7675C158.277 62.6924 158.173 62.6736 158.023 62.7111C157.911 62.5609 157.798 62.4201 157.685 62.2887C157.573 62.1385 157.469 61.9789 157.376 61.8099C157.413 61.5846 157.441 61.3969 157.46 61.2467C157.479 61.0777 157.422 60.9181 157.291 60.7679C157.366 60.5238 157.422 60.3267 157.46 60.1765C157.498 60.0263 157.498 59.8291 157.46 59.585Z" fill="white"/>
<path d="M157.686 56.4026C157.704 56.534 157.704 56.6373 157.686 56.7124C157.686 56.7687 157.676 56.8251 157.657 56.8814C157.657 56.9377 157.657 57.0034 157.657 57.0785C157.657 57.1348 157.676 57.2287 157.714 57.3602C157.319 57.9985 156.859 58.4397 156.334 58.6838C155.827 58.9091 155.273 59.0781 154.672 59.1907C154.071 59.2846 153.452 59.3879 152.813 59.5005C152.194 59.6132 151.574 59.8573 150.955 60.2328C150.71 60.1389 150.485 60.1389 150.279 60.2328C150.091 60.3267 149.809 60.3548 149.434 60.3173C149.321 60.4299 149.18 60.5144 149.011 60.5707C148.842 60.6083 148.673 60.6552 148.504 60.7116C148.579 60.8805 148.608 61.0589 148.589 61.2467C148.589 61.4156 148.617 61.5564 148.673 61.6691C149.33 61.7254 150.053 61.716 150.842 61.6409C151.649 61.5658 152.438 61.5189 153.208 61.5001C153.226 61.594 153.217 61.6597 153.179 61.6973C153.142 61.716 153.132 61.763 153.151 61.8381C153.283 61.932 153.414 62.054 153.546 62.2042C153.677 62.3356 153.808 62.4671 153.94 62.5985C154.071 62.7299 154.203 62.8426 154.334 62.9364C154.484 63.0115 154.653 63.0397 154.841 63.0209C154.916 63.1711 154.963 63.3401 154.982 63.5279C155.019 63.6968 155.001 63.8752 154.926 64.063C154.625 64.2695 154.325 64.4854 154.024 64.7107C153.724 64.9172 153.405 65.105 153.067 65.274C152.748 65.4429 152.4 65.5838 152.025 65.6964C151.668 65.7903 151.264 65.8278 150.814 65.8091C150.72 65.8091 150.645 65.8091 150.588 65.8091C150.551 65.8091 150.495 65.7809 150.419 65.7246C150.269 65.8185 150.053 65.8466 149.772 65.8091C149.509 65.7715 149.302 65.7997 149.152 65.8936C148.946 65.7997 148.692 65.7621 148.392 65.7809C148.11 65.7809 147.857 65.7434 147.631 65.6683C147.331 66.0625 147.059 66.485 146.815 66.9356C146.57 67.3862 146.355 67.865 146.167 68.3719C146.805 68.4658 147.331 68.5033 147.744 68.4846C148.176 68.4658 148.579 68.4376 148.955 68.4001C149.33 68.3437 149.715 68.2968 150.11 68.2593C150.504 68.2029 151.001 68.1841 151.602 68.2029C151.978 67.9964 152.419 67.865 152.926 67.8086C153.452 67.7335 153.93 67.6209 154.362 67.4707C154.512 67.527 154.644 67.6303 154.757 67.7805C154.869 67.9119 154.972 68.0433 155.066 68.1748C155.179 68.2874 155.292 68.3907 155.404 68.4846C155.517 68.5784 155.658 68.616 155.827 68.5972C155.902 68.6723 155.949 68.7662 155.968 68.8788C156.005 68.9727 156.033 69.0666 156.052 69.1605C156.071 69.2543 156.099 69.3388 156.137 69.4139C156.193 69.4703 156.277 69.489 156.39 69.4703C156.108 70.0898 155.78 70.5686 155.404 70.9066C155.048 71.2258 154.635 71.4698 154.165 71.6388C153.696 71.8078 153.17 71.9392 152.588 72.0331C152.025 72.127 151.396 72.2396 150.701 72.3711C150.532 72.4086 150.391 72.3992 150.279 72.3429C150.166 72.3053 150.035 72.2866 149.884 72.2866C149.453 72.3804 148.936 72.4649 148.335 72.54C147.735 72.6151 147.124 72.6433 146.505 72.6245C145.885 72.6057 145.294 72.5213 144.731 72.3711C144.167 72.2396 143.707 71.9955 143.351 71.6388C143.2 71.5074 143.097 71.3572 143.041 71.1882C143.003 71.0005 142.881 70.8596 142.675 70.7658C142.656 70.5217 142.618 70.2494 142.562 69.949C142.506 69.6486 142.449 69.3388 142.393 69.0197C142.337 68.6817 142.29 68.3531 142.252 68.0339C142.233 67.7148 142.252 67.4237 142.308 67.1609C142.365 66.8793 142.477 66.6258 142.646 66.4005C142.834 66.1752 142.9 65.9311 142.844 65.6683C142.937 65.6495 142.994 65.6025 143.013 65.5274C143.031 65.4336 143.106 65.396 143.238 65.4148C143.351 65.0768 143.473 64.7576 143.604 64.4572C143.735 64.1568 143.867 63.8658 143.998 63.5842C144.148 63.3026 144.289 63.0209 144.421 62.7393C144.571 62.4389 144.712 62.1103 144.843 61.7536C144.58 61.5095 144.383 61.2467 144.252 60.965C144.139 60.6646 144.055 60.3736 143.998 60.092C143.942 59.7916 143.895 59.4912 143.857 59.1907C143.82 58.8716 143.754 58.5524 143.66 58.2332C143.848 57.9516 144.073 57.7263 144.336 57.5573C144.618 57.3695 144.918 57.2193 145.237 57.1067C145.557 56.994 145.904 56.9002 146.279 56.8251C146.655 56.75 147.049 56.6655 147.462 56.5716C148.213 56.3275 148.88 56.1398 149.462 56.0083C150.063 55.8769 150.645 55.7736 151.208 55.6985C151.79 55.6047 152.391 55.5202 153.01 55.4451C153.63 55.37 154.334 55.2573 155.123 55.1071C155.292 55.2761 155.451 55.3606 155.601 55.3606C155.677 55.1916 155.761 55.1447 155.855 55.2198C155.968 55.2761 156.015 55.2198 155.996 55.0508C156.183 55.37 156.418 55.6422 156.7 55.8675C157 56.074 157.329 56.2524 157.686 56.4026Z" fill="white"/>
<path d="M144.166 58.7121C143.697 58.7121 143.19 58.7496 142.646 58.8247C142.101 58.8811 141.566 58.9468 141.04 59.0219C140.665 59.0782 140.299 59.1252 139.942 59.1627C139.604 59.2003 139.294 59.2284 139.013 59.2472C138.881 59.6603 138.75 60.0264 138.618 60.3456C138.487 60.6647 138.346 60.9745 138.196 61.2749C138.046 61.5941 137.905 61.9227 137.773 62.2606C137.661 62.5798 137.548 62.9272 137.435 63.3027C137.248 63.6031 137.088 63.8847 136.957 64.1476C136.844 64.3916 136.75 64.6733 136.675 64.9925C136.45 65.2741 136.281 65.5745 136.168 65.8937C136.055 66.1941 135.971 66.4569 135.915 66.6822L135.802 67.0202C135.689 67.1328 135.624 67.2267 135.605 67.3018C135.586 67.3582 135.539 67.4145 135.464 67.4708C135.445 67.6773 135.38 67.8839 135.267 68.0904C135.229 68.1843 135.201 68.2781 135.182 68.372C135.164 68.4471 135.154 68.5035 135.154 68.541C135.154 68.7288 135.107 68.8508 135.013 68.9071C135.032 69.001 135.032 69.1043 135.013 69.2169C134.995 69.3108 134.976 69.4047 134.957 69.4985C134.901 69.7239 134.882 69.9022 134.901 70.0336C134.957 70.1087 135.004 70.1745 135.042 70.2308C135.098 70.2871 135.135 70.3622 135.154 70.4561C135.267 70.5312 135.351 70.5781 135.408 70.5969C135.483 70.6532 135.595 70.7189 135.746 70.794L135.999 71.0757C136.093 71.6202 136.008 72.052 135.746 72.3712C135.464 72.7279 134.985 72.9063 134.309 72.9063H133.971C133.877 72.8124 133.821 72.7373 133.802 72.681C133.652 72.6246 133.53 72.5777 133.436 72.5402C133.342 72.5026 133.258 72.4275 133.183 72.3149C132.939 72.2022 132.742 72.1083 132.591 72.0332L132.338 71.8924C132.338 71.6859 132.338 71.5732 132.338 71.5544C132.206 71.3855 132.103 71.1977 132.028 70.9912C131.972 70.7847 131.925 70.5781 131.887 70.3716C131.85 70.2026 131.803 70.043 131.746 69.8928C131.709 69.7426 131.653 69.6112 131.577 69.4985C131.54 68.4096 131.643 67.4896 131.887 66.7386C132.131 65.9876 132.385 65.2647 132.648 64.57C132.798 64.1945 132.948 63.819 133.098 63.4435C133.249 63.0492 133.38 62.6455 133.493 62.2325L133.746 61.9508C133.877 61.6504 133.981 61.4064 134.056 61.2186C134.15 61.0121 134.244 60.8056 134.337 60.599C134.394 60.4676 134.441 60.3456 134.478 60.2329C134.535 60.1015 134.582 59.9888 134.619 59.8949C134.506 59.8949 134.403 59.9043 134.309 59.9231C134.215 59.9231 134.122 59.9325 134.028 59.9513C133.915 59.97 133.812 59.9888 133.718 60.0076C133.624 60.0076 133.53 60.0076 133.436 60.0076C133.305 60.0076 133.211 59.9982 133.155 59.9794C132.948 60.0733 132.723 60.1203 132.479 60.1203H132.197C132.141 60.1203 132.084 60.1203 132.028 60.1203C131.991 60.1015 131.953 60.0921 131.915 60.0921C131.728 60.0921 131.577 60.1203 131.465 60.1766C131.24 60.1766 131.024 60.1766 130.817 60.1766H130.535C130.498 60.1766 130.451 60.186 130.395 60.2047C130.338 60.2047 130.291 60.2047 130.254 60.2047C130.122 60.2047 129.982 60.1954 129.831 60.1766C129.681 60.139 129.522 60.0733 129.353 59.9794C129.127 59.679 128.977 59.5194 128.902 59.5007L128.649 59.1627C128.63 59.0501 128.602 58.9468 128.564 58.8529C128.526 58.7403 128.489 58.6182 128.451 58.4868C128.376 58.299 128.301 58.1019 128.226 57.8954C128.17 57.6701 128.142 57.4072 128.142 57.1068C128.16 56.9566 128.198 56.8439 128.254 56.7688C128.311 56.6937 128.358 56.628 128.395 56.5717L128.48 56.1493L128.846 56.1774H129.634C130.235 56.1774 130.845 56.1586 131.465 56.1211C132.084 56.0648 132.723 56.0084 133.38 55.9521C133.755 55.9146 134.131 55.877 134.506 55.8395C134.901 55.8019 135.304 55.7644 135.717 55.7268C135.793 55.5578 135.868 55.3982 135.943 55.248L136.224 55.1072C136.562 55.0885 136.797 55.1354 136.928 55.248C137.079 55.3419 137.201 55.4358 137.295 55.5297C137.708 55.4921 138.121 55.4546 138.534 55.417C138.966 55.3607 139.397 55.295 139.829 55.2199C140.468 55.126 141.106 55.0415 141.744 54.9664C142.401 54.8913 143.03 54.8538 143.631 54.8538C143.894 54.8538 144.148 54.8631 144.392 54.8819C144.636 54.9007 144.861 54.9289 145.068 54.9664L145.349 55.1636C145.406 55.2762 145.481 55.3795 145.575 55.4733C145.687 55.5672 145.8 55.6611 145.912 55.755C146.138 55.9615 146.363 56.2056 146.588 56.4872C146.814 56.7688 146.898 57.1819 146.842 57.7264C146.692 57.9517 146.579 58.0831 146.504 58.1207L146.25 58.4586L145.969 58.4305C145.856 58.4305 145.753 58.4492 145.659 58.4868C145.565 58.5056 145.471 58.5337 145.377 58.5713C145.302 58.6088 145.227 58.6464 145.152 58.6839C145.077 58.7027 144.992 58.7215 144.899 58.7403C144.73 58.7403 144.589 58.7403 144.476 58.7403C144.382 58.7215 144.279 58.7121 144.166 58.7121Z" fill="white"/>
<path d="M124.875 70.287C124.969 70.8503 124.931 71.2915 124.762 71.6107C124.612 71.9299 124.387 72.1645 124.086 72.3147C123.805 72.4837 123.476 72.5776 123.101 72.5964C122.725 72.6152 122.368 72.5964 122.03 72.5401C121.843 72.2772 121.674 71.9486 121.523 71.5543C121.373 71.1601 121.232 70.7564 121.101 70.3433C120.97 69.9115 120.848 69.4891 120.735 69.076C120.641 68.6629 120.557 68.2968 120.481 67.9776C120.575 67.7523 120.632 67.4989 120.65 67.2172C120.688 66.9168 120.707 66.6164 120.707 66.316C120.726 66.0156 120.735 65.7152 120.735 65.4148C120.754 65.0956 120.782 64.7952 120.819 64.5136C120.951 63.725 121.139 62.974 121.383 62.2605C121.646 61.5471 121.852 60.8054 122.002 60.0357C122.04 59.8667 122.021 59.7071 121.946 59.5569C121.89 59.4067 121.88 59.2659 121.918 59.1344C121.937 59.0593 121.993 59.0124 122.087 58.9936C122.181 58.9561 122.237 58.8904 122.256 58.7965C122.312 58.59 122.321 58.421 122.284 58.2895C122.265 58.1581 122.303 57.9985 122.397 57.8108C122.49 57.6606 122.603 57.4447 122.734 57.163C122.885 56.8626 122.941 56.5528 122.903 56.2336C123.072 56.121 123.232 55.9896 123.382 55.8394C123.532 55.6892 123.683 55.5577 123.833 55.4451C124.002 55.3137 124.18 55.201 124.368 55.1071C124.574 55.0132 124.819 54.9663 125.1 54.9663C125.25 55.1541 125.344 55.3606 125.382 55.5859C125.438 55.8112 125.485 56.0365 125.523 56.2618C125.579 56.4871 125.654 56.703 125.748 56.9096C125.842 57.0973 126.001 57.2475 126.227 57.3602C126.227 57.5104 126.227 57.6981 126.227 57.9234C126.227 58.1487 126.236 58.374 126.255 58.5993C126.274 58.8059 126.311 59.003 126.368 59.1908C126.443 59.3597 126.555 59.4724 126.705 59.5287C126.368 60.4299 126.048 61.3218 125.748 62.2042C125.466 63.0867 125.232 63.9785 125.044 64.8797C124.856 65.7621 124.734 66.654 124.678 67.5552C124.64 68.4564 124.706 69.367 124.875 70.287Z" fill="white"/>
<path d="M101.443 58.6557C100.654 58.3365 99.9973 57.8859 99.4716 57.3039C98.9647 56.7218 98.5516 56.0365 98.2324 55.248C98.4202 54.741 98.7206 54.3186 99.1336 53.9806C99.5467 53.6239 100.007 53.3235 100.514 53.0794C101.039 52.8353 101.593 52.6382 102.175 52.488C102.757 52.3378 103.321 52.2064 103.865 52.0937C103.978 52.1313 104.034 52.1313 104.034 52.0937C104.034 52.0562 104.081 52.0749 104.175 52.15C104.851 51.9435 105.63 51.7464 106.512 51.5586C107.395 51.3521 108.334 51.277 109.329 51.3333C109.46 51.2582 109.62 51.2206 109.807 51.2206C109.995 51.2019 110.192 51.1925 110.399 51.1925C110.605 51.1925 110.803 51.1925 110.99 51.1925C111.178 51.1737 111.338 51.1362 111.469 51.0798C111.582 51.2113 111.751 51.2958 111.976 51.3333C112.201 51.3521 112.436 51.446 112.68 51.6149C112.755 51.6337 112.755 51.6055 112.68 51.5304C112.605 51.4366 112.614 51.3709 112.708 51.3333C112.952 51.3333 113.168 51.3896 113.356 51.5023C113.544 51.6149 113.713 51.7464 113.863 51.8966C114.032 52.028 114.182 52.15 114.314 52.2627C114.464 52.3753 114.623 52.4317 114.792 52.4317C114.961 52.6382 115.158 52.8353 115.384 53.0231C115.628 53.1921 115.853 53.3704 116.06 53.5582C116.285 53.7459 116.463 53.9525 116.595 54.1778C116.745 54.4031 116.82 54.6565 116.82 54.9382C116.801 55.0508 116.839 55.1165 116.933 55.1353C117.027 55.1541 117.092 55.2104 117.13 55.3043C117.149 55.999 117.036 56.5998 116.792 57.1067C116.567 57.6137 116.276 58.083 115.919 58.5149C115.562 58.9279 115.177 59.3222 114.764 59.6977C114.37 60.0732 114.004 60.4769 113.666 60.9087C113.891 61.1904 114.145 61.4532 114.426 61.6973C114.727 61.9226 115.027 62.1479 115.327 62.3732C115.628 62.5985 115.909 62.8426 116.172 63.1055C116.454 63.3495 116.689 63.6312 116.876 63.9503C116.933 64.063 117.055 64.1381 117.242 64.1757C117.299 64.401 117.374 64.6356 117.468 64.8797C117.58 65.105 117.684 65.3303 117.778 65.5556C117.871 65.7622 117.928 65.9499 117.947 66.1189C117.965 66.2879 117.918 66.4287 117.806 66.5413C117.937 66.6165 118.012 66.7385 118.031 66.9075C118.05 67.0577 118.05 67.1797 118.031 67.2736C117.618 67.7805 117.336 68.1373 117.186 68.3438C117.036 68.5503 116.923 68.7005 116.848 68.7944C116.773 68.8883 116.698 68.9728 116.623 69.0479C116.548 69.123 116.379 69.2732 116.116 69.4985C115.121 70.0993 114.079 70.6438 112.99 71.1319C111.92 71.6013 110.803 71.9205 109.638 72.0895C109.545 72.2209 109.404 72.3242 109.216 72.3993C109.047 72.4931 108.85 72.5682 108.625 72.6246C108.399 72.6809 108.155 72.7278 107.892 72.7654C107.648 72.8029 107.423 72.8405 107.216 72.878C107.123 72.8405 107.066 72.7748 107.047 72.6809C107.047 72.6058 107.001 72.5495 106.907 72.5119C106.888 72.7372 106.785 72.8499 106.597 72.8499C106.428 72.8686 106.212 72.8311 105.949 72.7372C105.686 72.6433 105.414 72.5119 105.132 72.3429C104.851 72.174 104.607 72.0144 104.4 71.8642C104.306 72.0331 104.184 72.2115 104.034 72.3993C103.903 72.587 103.762 72.7184 103.612 72.7935C103.349 72.756 103.152 72.7278 103.02 72.7091C102.907 72.6903 102.795 72.7372 102.682 72.8499C102.532 72.7748 102.419 72.6903 102.344 72.5964C102.269 72.5213 102.194 72.4368 102.119 72.3429C102.044 72.2678 101.959 72.2021 101.865 72.1458C101.772 72.0707 101.631 72.005 101.443 71.9487C101.481 71.8548 101.452 71.714 101.359 71.5262C101.265 71.3197 101.133 71.1976 100.964 71.1601C101.058 71.0099 101.021 70.8221 100.852 70.5968C100.683 70.3527 100.551 70.0805 100.457 69.7801C100.476 69.6487 100.485 69.5172 100.485 69.3858C100.504 69.2356 100.523 69.1042 100.542 68.9915C100.579 68.8601 100.626 68.7475 100.683 68.6536C100.739 68.5597 100.833 68.494 100.964 68.4564C100.945 68.2124 100.87 67.9777 100.739 67.7524C100.908 67.6209 101.021 67.4613 101.077 67.2736C101.133 67.0671 101.18 66.8605 101.218 66.654C101.274 66.4475 101.34 66.2503 101.415 66.0626C101.49 65.856 101.612 65.6871 101.781 65.5556C101.743 65.4993 101.706 65.4524 101.668 65.4148C101.631 65.3773 101.612 65.3116 101.612 65.2177C101.894 64.7483 102.091 64.354 102.203 64.0348C102.316 63.6969 102.401 63.3777 102.457 63.0773C102.532 62.7581 102.607 62.4202 102.682 62.0634C102.757 61.7067 102.907 61.2561 103.133 60.7116C103.114 60.3736 103.152 60.0732 103.245 59.8104C103.339 59.5475 103.433 59.2941 103.527 59.05C103.64 58.7871 103.724 58.5149 103.781 58.2332C103.837 57.9516 103.827 57.623 103.752 57.2475C103.433 57.2851 103.199 57.3977 103.048 57.5855C102.917 57.7733 102.832 58.0267 102.795 58.3459C102.626 58.4961 102.41 58.5712 102.147 58.5712C101.884 58.5524 101.65 58.5806 101.443 58.6557ZM113.835 64.0912C113.121 63.6969 112.464 63.4622 111.863 63.3871C111.281 63.312 110.718 63.3214 110.174 63.4152C109.648 63.4904 109.141 63.603 108.653 63.7532C108.165 63.9034 107.676 64.0161 107.188 64.0912C106.944 64.7295 106.691 65.4336 106.428 66.2034C106.165 66.9732 105.912 67.7242 105.667 68.4564C106.343 68.3626 106.963 68.2217 107.526 68.034C108.089 67.8462 108.634 67.6397 109.16 67.4144C109.685 67.1703 110.202 66.9356 110.709 66.7103C111.216 66.4662 111.741 66.2409 112.286 66.0344C112.342 65.8091 112.464 65.6307 112.652 65.4993C112.84 65.3679 113.027 65.2458 113.215 65.1332C113.403 65.0018 113.563 64.861 113.694 64.7108C113.825 64.5605 113.872 64.354 113.835 64.0912ZM111.863 55.2761C110.699 55.2386 109.554 55.3418 108.427 55.5859C107.301 55.83 106.353 56.1867 105.583 56.6561C105.958 56.9753 106.343 57.2569 106.738 57.501C107.151 57.7451 107.461 58.0737 107.667 58.4867C108.568 58.13 109.357 57.6794 110.033 57.1349C110.709 56.5716 111.319 55.952 111.863 55.2761Z" fill="white"/>
<path d="M85.8977 64.8797C85.7663 64.9923 85.6536 65.1331 85.5597 65.3021C85.4659 65.4523 85.372 65.6119 85.2781 65.7809C85.1842 65.9874 85.081 66.1846 84.9683 66.3723C84.8557 66.5601 84.7148 66.7291 84.5459 66.8793C84.452 67.1609 84.3581 67.3862 84.2642 67.5552C84.1704 67.7054 84.0202 67.8837 83.8136 68.0903C83.6259 68.8413 83.1846 69.658 82.49 70.5405C82.4712 70.7094 82.4149 70.8784 82.321 71.0474C82.2459 71.1976 82.1614 71.3478 82.0675 71.498C82.03 71.5543 81.9924 71.62 81.9549 71.6951C81.9173 71.7515 81.8891 71.7984 81.8704 71.836L81.814 72.1176C81.7202 72.2678 81.6169 72.3992 81.5043 72.5119C81.3916 72.6245 81.2883 72.7278 81.1945 72.8217C81.1569 72.878 81.0912 72.9531 80.9973 73.047L80.5749 73.2159C79.2043 73.0282 78.3688 72.296 78.0684 71.0192L78.0965 70.7376C78.1341 70.6437 78.1622 70.5498 78.181 70.456C78.2186 70.3433 78.2561 70.2307 78.2937 70.118C78.3688 69.8552 78.4533 69.5923 78.5471 69.3294C78.6598 69.0666 78.8194 68.8319 79.0259 68.6254C79.0635 68.4939 79.1479 68.2874 79.2794 68.0058C79.4108 67.7054 79.6361 67.2642 79.9553 66.6821C80.2181 66.2315 80.4247 65.8748 80.5749 65.6119C80.7251 65.3491 80.8471 65.1425 80.941 64.9923C80.7532 64.6919 80.5279 64.4197 80.2651 64.1756C80.021 63.7062 79.8051 63.2556 79.6173 62.8238C79.4483 62.3919 79.3169 62.0071 79.223 61.6691C79.2043 61.425 79.1761 61.2185 79.1386 61.0495C79.101 60.8805 79.0635 60.7022 79.0259 60.5144C78.9696 60.3079 78.9226 60.1014 78.8851 59.8948C78.8475 59.6883 78.8288 59.4724 78.8288 59.2471C78.7349 59.1156 78.6786 58.9842 78.6598 58.8528L78.7161 58.5712C78.7724 58.4397 78.7818 58.2708 78.7443 58.0642C78.7067 57.8389 78.6598 57.6136 78.6035 57.3883C78.5659 57.2006 78.519 56.994 78.4626 56.7687C78.4251 56.5434 78.4157 56.3181 78.4345 56.0928C78.4533 55.8675 78.5096 55.661 78.6035 55.4732C78.7161 55.2667 78.8945 55.0883 79.1386 54.9381L79.6173 54.91C79.7863 55.0038 79.9459 55.0977 80.0961 55.1916C80.2651 55.2667 80.4247 55.3512 80.5749 55.4451C80.7814 55.5389 80.9785 55.6328 81.1663 55.7267C81.354 55.8206 81.5512 55.9426 81.7577 56.0928L81.9549 56.4871L82.321 56.7969V57.1067C82.3398 57.1818 82.3491 57.285 82.3491 57.4165C82.3491 57.6606 82.3867 57.8108 82.4618 57.8671L82.5744 58.205C82.5744 58.4679 82.6026 58.7214 82.6589 58.9654C82.7153 59.1907 82.7716 59.4067 82.8279 59.6132C82.8842 59.8197 82.9406 60.0356 82.9969 60.2609C83.0532 60.4862 83.0626 60.7303 83.0251 60.9932C83.1377 60.9369 83.2316 60.8711 83.3067 60.796C83.3442 60.7585 83.3818 60.7303 83.4193 60.7115C83.4569 60.6928 83.4944 60.6646 83.532 60.6271L85.1936 58.374L85.1373 58.0924L85.7287 57.5291C85.8789 57.3789 86.0197 57.2381 86.1512 57.1067C86.3014 56.9753 86.4234 56.8344 86.5173 56.6842L86.8271 56.4589C87.4279 55.5202 88.2822 54.9381 89.3899 54.7128L89.7842 54.6565L89.8968 55.0226C89.9719 55.2291 90.1221 55.4169 90.3474 55.5859C90.5915 55.7549 90.845 55.9144 91.1079 56.0646L91.3613 56.2336C91.4552 56.4214 91.5021 56.5622 91.5021 56.6561C91.5021 56.7499 91.4927 56.8344 91.474 56.9095L91.5866 57.1912C91.4364 57.6418 91.2487 57.9703 91.0234 58.1769C90.8168 58.3834 90.6103 58.5712 90.4038 58.7401C90.2348 58.8903 90.0752 59.0312 89.925 59.1626C89.7936 59.2752 89.6903 59.4254 89.6152 59.6132L89.4181 59.8385C89.0238 60.0638 88.7703 60.3642 88.6577 60.7397L88.5732 61.0777H88.2352C88.2164 61.0777 88.1695 61.1152 88.0944 61.1903C88.0381 61.2466 87.9442 61.4062 87.8128 61.6691C87.6813 61.8568 87.5875 61.9789 87.5311 62.0352C87.4748 62.0915 87.4279 62.1385 87.3903 62.176C87.3716 62.2511 87.3434 62.3262 87.3058 62.4013C87.2871 62.4577 87.2589 62.5328 87.2214 62.6266C86.9773 62.8707 86.8271 63.0585 86.7707 63.1899C86.7144 63.3026 86.6487 63.434 86.5736 63.5842C86.4985 63.7344 86.4234 63.8846 86.3483 64.0348C86.292 64.1662 86.1887 64.307 86.0385 64.4572L85.8977 64.8797Z" fill="white"/>
<path d="M72.8861 71.7515C72.6983 71.8454 72.52 71.9299 72.351 72.005C72.2008 72.0801 72.0224 72.1177 71.8159 72.1177C71.0837 71.5732 70.6988 70.625 70.6612 69.2732C70.6424 67.9214 70.9335 66.2034 71.5343 64.1193C71.6282 64.063 71.6751 63.9504 71.6751 63.7814L71.4216 63.4998C71.3465 63.4998 71.2714 63.5091 71.1963 63.5279C71.14 63.5467 71.0931 63.6124 71.0555 63.7251C70.5673 64.0818 70.0322 64.4573 69.4502 64.8516C68.8682 65.2271 68.258 65.5838 67.6196 65.9218C67 66.241 66.3617 66.5038 65.7045 66.7104C65.0662 66.9169 64.4372 67.0201 63.8176 67.0201C62.2405 67.0201 61.0576 66.2222 60.2691 64.6263L60.0437 64.2038L59.8184 64.57C59.7621 64.6451 59.6776 64.8047 59.565 65.0487C59.4523 65.274 59.3397 65.5369 59.227 65.8373C59.1144 66.1377 59.0111 66.4475 58.9172 66.7667C58.8421 67.0671 58.814 67.3299 58.8327 67.5552C58.6638 67.7242 58.4854 67.9214 58.2976 68.1467C58.1099 68.372 57.9691 68.6254 57.8752 68.9071C57.8376 69.0573 57.8564 69.1981 57.9315 69.3295C57.894 69.4985 57.8095 69.6299 57.6781 69.7238C57.603 69.8177 57.5185 69.9115 57.4246 70.0054C57.3495 70.0805 57.2838 70.165 57.2274 70.2589C57.1899 70.3528 57.1617 70.4466 57.143 70.5405C57.143 70.6344 57.1336 70.7283 57.1148 70.8222C57.1148 70.9536 57.096 71.0756 57.0585 71.1883C56.7393 71.8454 56.4858 72.2679 56.2981 72.4556C56.1103 72.6621 55.8568 72.7654 55.5377 72.7654C55.3875 72.7654 55.1434 72.7372 54.8054 72.6809C54.5613 72.4181 54.336 72.0613 54.1295 71.6107C53.9418 71.1413 53.7916 70.6438 53.6789 70.1181C53.585 69.5924 53.5381 69.0667 53.5381 68.5409C53.5569 67.9965 53.6507 67.5271 53.8197 67.1328C53.8197 67.114 53.8948 66.9263 54.045 66.5695C54.1952 66.2128 54.383 65.7528 54.6083 65.1895C54.8524 64.6263 55.1246 64.0067 55.425 63.3308C55.7254 62.6361 56.0258 61.9696 56.3262 61.3312C56.6266 60.6741 56.9083 60.0733 57.1711 59.5288C57.4527 58.9843 57.6874 58.5712 57.8752 58.2896C58.0254 58.0643 58.1568 57.8578 58.2695 57.67C58.4009 57.4635 58.5229 57.2663 58.6356 57.0786C58.9736 56.4966 59.2927 56.0178 59.5931 55.6423C59.9123 55.248 60.3723 54.9382 60.9731 54.7129C61.3862 54.8819 61.6866 55.079 61.8743 55.3043L61.9307 55.6141C62.0058 55.8019 62.1184 55.8957 62.2686 55.8957C62.4752 55.9521 62.6441 56.0084 62.7756 56.0647C62.9258 56.1023 63.0854 56.1398 63.2543 56.1774C63.3858 56.3276 63.5078 56.5059 63.6205 56.7125C63.7707 56.9378 63.9115 57.1631 64.0429 57.3884C64.1931 57.5949 64.3058 57.8108 64.3809 58.0361C64.4747 58.2427 64.5217 58.4586 64.5217 58.6839C64.5405 58.9092 64.5029 59.1439 64.409 59.388L64.4372 59.6696C64.5311 59.8386 64.5498 60.0733 64.4935 60.3737C64.4747 60.5051 64.4653 60.6459 64.4653 60.7961C64.4653 60.9275 64.4841 61.0777 64.5217 61.2467C64.8596 61.5096 65.16 61.641 65.4229 61.641C65.7233 61.641 65.9955 61.5753 66.2396 61.4439C66.5025 61.2937 66.7466 61.1435 66.9719 60.9933C67.1221 60.8806 67.2723 60.7867 67.4225 60.7116C67.5727 60.6177 67.7229 60.5614 67.8731 60.5426C68.211 60.2235 68.5114 59.9418 68.7743 59.6978C69.0559 59.4537 69.3469 59.2096 69.6474 58.9655C70.2106 58.5149 70.7551 58.0267 71.2808 57.501C71.8065 56.9753 72.229 56.3182 72.5481 55.5296C72.7359 55.417 72.933 55.3606 73.1396 55.3606C73.3461 55.3606 73.562 55.4076 73.7873 55.5015C74.0126 55.5953 74.2285 55.6892 74.4351 55.7831C74.4914 55.8206 74.5383 55.8488 74.5759 55.8676C74.6322 55.8864 74.6791 55.9051 74.7167 55.9239C74.7167 56.1117 74.7918 56.2712 74.942 56.4027C75.0171 56.459 75.064 56.4966 75.0828 56.5153C75.1016 56.5341 75.1298 56.5529 75.1673 56.5717C75.4489 56.7219 75.6273 56.8721 75.7024 57.0223C75.8338 57.4541 76.0685 57.7827 76.4065 58.008C76.3689 58.1957 76.3689 58.3741 76.4065 58.5431C76.4628 58.6933 76.5285 58.8529 76.6036 59.0218C76.6224 59.0782 76.6412 59.1345 76.6599 59.1908C76.6787 59.2471 76.7069 59.3129 76.7444 59.388L76.2093 59.3316L76.2938 59.8667C76.3314 60.1296 76.3032 60.4206 76.2093 60.7398C76.1342 61.059 76.0404 61.3124 75.9277 61.5002C75.9465 61.9883 75.9559 62.3732 75.9559 62.6549C75.9746 62.9177 75.9653 63.1712 75.9277 63.4153C75.8902 63.6406 75.8338 63.8565 75.7587 64.063C75.7024 64.2696 75.6179 64.4949 75.5053 64.7389C75.5804 65.9406 75.4396 67.0389 75.0828 68.034C74.7449 69.0103 74.3881 69.9303 74.0126 70.794C73.9751 70.8879 73.9281 70.9817 73.8718 71.0756C73.8343 71.1695 73.7967 71.2634 73.7592 71.3573C73.5902 71.4136 73.44 71.4793 73.3085 71.5544C73.1771 71.6107 73.0363 71.6764 72.8861 71.7515Z" fill="white"/>
<path d="M49.3978 71.7515C49.2101 71.8454 49.0317 71.9299 48.8627 72.005C48.7125 72.0801 48.5342 72.1177 48.3276 72.1177C47.5954 71.5732 47.2105 70.625 47.1729 69.2732C47.1542 67.9214 47.4452 66.2034 48.046 64.1193C48.1399 64.063 48.1868 63.9504 48.1868 63.7814L47.9333 63.4998C47.8582 63.4998 47.7831 63.5091 47.708 63.5279C47.6517 63.5467 47.6048 63.6124 47.5672 63.7251C47.0791 64.0818 46.544 64.4573 45.9619 64.8516C45.3799 65.2271 44.7697 65.5838 44.1313 65.9218C43.5117 66.241 42.8734 66.5038 42.2162 66.7104C41.5779 66.9169 40.9489 67.0201 40.3293 67.0201C38.7522 67.0201 37.5693 66.2222 36.7808 64.6263L36.5555 64.2038L36.3302 64.57C36.2738 64.6451 36.1893 64.8047 36.0767 65.0487C35.964 65.274 35.8514 65.5369 35.7387 65.8373C35.6261 66.1377 35.5228 66.4475 35.4289 66.7667C35.3538 67.0671 35.3257 67.3299 35.3445 67.5552C35.1755 67.7242 34.9971 67.9214 34.8094 68.1467C34.6216 68.372 34.4808 68.6254 34.3869 68.9071C34.3494 69.0573 34.3681 69.1981 34.4432 69.3295C34.4057 69.4985 34.3212 69.6299 34.1898 69.7238C34.1147 69.8177 34.0302 69.9115 33.9363 70.0054C33.8612 70.0805 33.7955 70.165 33.7392 70.2589C33.7016 70.3528 33.6735 70.4466 33.6547 70.5405C33.6547 70.6344 33.6453 70.7283 33.6265 70.8222C33.6265 70.9536 33.6077 71.0756 33.5702 71.1883C33.251 71.8454 32.9975 72.2679 32.8098 72.4556C32.622 72.6621 32.3686 72.7654 32.0494 72.7654C31.8992 72.7654 31.6551 72.7372 31.3171 72.6809C31.0731 72.4181 30.8478 72.0613 30.6412 71.6107C30.4535 71.1413 30.3033 70.6438 30.1906 70.1181C30.0967 69.5924 30.0498 69.0667 30.0498 68.5409C30.0686 67.9965 30.1625 67.5271 30.3314 67.1328C30.3314 67.114 30.4065 66.9263 30.5567 66.5695C30.7069 66.2128 30.8947 65.7528 31.12 65.1895C31.3641 64.6263 31.6363 64.0067 31.9367 63.3308C32.2371 62.6361 32.5375 61.9696 32.8379 61.3312C33.1384 60.6741 33.42 60.0733 33.6828 59.5288C33.9645 58.9843 34.1992 58.5712 34.3869 58.2896C34.5371 58.0643 34.6685 57.8578 34.7812 57.67C34.9126 57.4635 35.0347 57.2663 35.1473 57.0786C35.4853 56.4966 35.8045 56.0178 36.1049 55.6423C36.424 55.248 36.884 54.9382 37.4848 54.7129C37.8979 54.8819 38.1983 55.079 38.3861 55.3043L38.4424 55.6141C38.5175 55.8019 38.6301 55.8957 38.7803 55.8957C38.9869 55.9521 39.1559 56.0084 39.2873 56.0647C39.4375 56.1023 39.5971 56.1398 39.7661 56.1774C39.8975 56.3276 40.0195 56.5059 40.1322 56.7125C40.2824 56.9378 40.4232 57.1631 40.5546 57.3884C40.7048 57.5949 40.8175 57.8108 40.8926 58.0361C40.9865 58.2427 41.0334 58.4586 41.0334 58.6839C41.0522 58.9092 41.0146 59.1439 40.9207 59.388L40.9489 59.6696C41.0428 59.8386 41.0616 60.0733 41.0052 60.3737C40.9865 60.5051 40.9771 60.6459 40.9771 60.7961C40.9771 60.9275 40.9958 61.0777 41.0334 61.2467C41.3714 61.5096 41.6718 61.641 41.9346 61.641C42.235 61.641 42.5073 61.5753 42.7513 61.4439C43.0142 61.2937 43.2583 61.1435 43.4836 60.9933C43.6338 60.8806 43.784 60.7867 43.9342 60.7116C44.0844 60.6177 44.2346 60.5614 44.3848 60.5426C44.7228 60.2235 45.0232 59.9418 45.286 59.6978C45.5676 59.4537 45.8587 59.2096 46.1591 58.9655C46.7223 58.5149 47.2668 58.0267 47.7925 57.501C48.3182 56.9753 48.7407 56.3182 49.0599 55.5296C49.2476 55.417 49.4448 55.3606 49.6513 55.3606C49.8578 55.3606 50.0737 55.4076 50.299 55.5015C50.5243 55.5953 50.7403 55.6892 50.9468 55.7831C51.0031 55.8206 51.0501 55.8488 51.0876 55.8676C51.1439 55.8864 51.1909 55.9051 51.2284 55.9239C51.2284 56.1117 51.3035 56.2712 51.4537 56.4027C51.5288 56.459 51.5758 56.4966 51.5945 56.5153C51.6133 56.5341 51.6415 56.5529 51.679 56.5717C51.9607 56.7219 52.139 56.8721 52.2141 57.0223C52.3456 57.4541 52.5802 57.7827 52.9182 58.008C52.8806 58.1957 52.8806 58.3741 52.9182 58.5431C52.9745 58.6933 53.0402 58.8529 53.1153 59.0218C53.1341 59.0782 53.1529 59.1345 53.1717 59.1908C53.1904 59.2471 53.2186 59.3129 53.2562 59.388L52.7211 59.3316L52.8055 59.8667C52.8431 60.1296 52.8149 60.4206 52.7211 60.7398C52.646 61.059 52.5521 61.3124 52.4394 61.5002C52.4582 61.9883 52.4676 62.3732 52.4676 62.6549C52.4864 62.9177 52.477 63.1712 52.4394 63.4153C52.4019 63.6406 52.3456 63.8565 52.2704 64.063C52.2141 64.2696 52.1296 64.4949 52.017 64.7389C52.0921 65.9406 51.9513 67.0389 51.5945 68.034C51.2566 69.0103 50.8998 69.9303 50.5243 70.794C50.4868 70.8879 50.4399 70.9817 50.3835 71.0756C50.346 71.1695 50.3084 71.2634 50.2709 71.3573C50.1019 71.4136 49.9517 71.4793 49.8203 71.5544C49.6888 71.6107 49.548 71.6764 49.3978 71.7515Z" fill="white"/>
<path d="M29.6555 56.2337C29.693 56.6468 29.7587 57.0035 29.8526 57.3039C29.9465 57.6043 30.0498 57.8954 30.1624 58.177C30.2563 58.4398 30.3408 58.7027 30.4159 58.9655C30.5097 59.2096 30.5755 59.51 30.613 59.8668C30.4628 60.3549 30.3502 60.8055 30.2751 61.2186C30.2187 61.6316 30.153 62.0635 30.0779 62.5141C29.7775 63.1712 29.4865 63.7533 29.2049 64.2602C28.9232 64.7671 28.6979 65.2084 28.5289 65.5839C28.4351 65.6777 28.3506 65.7904 28.2755 65.9218C28.2192 66.0345 28.1534 66.1565 28.0783 66.2879C28.0408 66.3443 27.9938 66.4288 27.9375 66.5414C27.8812 66.6541 27.8343 66.7292 27.7967 66.7667L27.2334 66.5696L27.1208 67.2736L26.7265 67.3863L26.4449 67.7243C26.0881 68.3438 25.7126 68.8696 25.3184 69.3014C24.9241 69.7144 24.4735 70.09 23.9665 70.4279C23.4784 70.7471 22.9151 71.0475 22.2768 71.3291C21.6572 71.6108 20.9531 71.9206 20.1645 72.2585C19.8453 72.221 19.5637 72.2022 19.3196 72.2022C19.0943 72.1834 18.8784 72.1646 18.6719 72.1459C18.3151 72.1459 17.8739 72.1177 17.3482 72.0614C17.2919 71.9112 17.2074 71.8079 17.0947 71.7516C16.9821 71.6952 16.8788 71.6671 16.785 71.6671C16.4658 71.5169 16.2217 71.301 16.0527 71.0193C15.9025 70.7189 15.7523 70.3997 15.6021 70.0618C15.5082 69.8553 15.4144 69.6675 15.3205 69.4985C15.2266 69.3108 15.1233 69.123 15.0107 68.9353L15.4895 68.7945L14.8699 68.1185C14.8323 68.0622 14.7854 68.0153 14.7291 67.9777C14.6727 67.9214 14.6258 67.8651 14.5882 67.8087L14.5601 67.3581C14.5037 66.0626 14.4756 64.8798 14.4756 63.8096C14.4944 62.7206 14.6446 61.7537 14.9262 60.9088V60.599C14.9825 60.1859 15.0388 59.848 15.0952 59.5851C15.1515 59.3035 15.1984 59.0406 15.236 58.7966C15.2923 58.3835 15.3768 57.9986 15.4895 57.6419C15.7523 57.5856 15.9495 57.4823 16.0809 57.3321C16.2123 57.1631 16.325 57.0129 16.4188 56.8815C16.6817 56.8627 16.8601 56.9003 16.9539 56.9941C17.0478 57.088 17.1417 57.2382 17.2356 57.4447C17.3294 57.6137 17.4421 57.8015 17.5735 58.008C17.7237 58.2145 17.9396 58.3741 18.2213 58.4868C18.2588 58.637 18.3058 58.7966 18.3621 58.9655C18.4372 59.1158 18.5123 59.2847 18.5874 59.4725C18.7376 59.7917 18.869 60.1296 18.9817 60.4864C19.1131 60.8243 19.1882 61.1529 19.207 61.4721C19.0192 61.8288 18.869 62.2418 18.7564 62.7112C18.6625 63.1806 18.5968 63.6594 18.5592 64.1475C18.5405 64.6169 18.5498 65.0769 18.5874 65.5275C18.6437 65.9594 18.7282 66.3255 18.8409 66.6259L19.0098 66.992L19.4886 66.9357C20.0519 66.7855 20.5588 66.6259 21.0094 66.4569C21.4788 66.2692 21.9106 66.0532 22.3049 65.8092C22.6992 65.5651 23.0747 65.2835 23.4314 64.9643C23.7882 64.6263 24.1637 64.2414 24.558 63.8096C24.9522 63.3778 25.2902 62.8896 25.5718 62.3451C25.8722 61.7819 26.1163 61.1998 26.3041 60.599C26.5106 59.9982 26.6608 59.4068 26.7547 58.8247C26.8673 58.2239 26.9424 57.6607 26.98 57.135C27.2992 57.0223 27.4588 56.797 27.4588 56.459L27.4024 56.1492C27.3273 56.0366 27.3273 55.9052 27.4024 55.755C27.5151 55.3982 27.7779 55.126 28.191 54.9382C28.4914 55.126 28.7543 55.3325 28.9796 55.5578C29.2236 55.7831 29.4489 56.0084 29.6555 56.2337Z" fill="white"/>
<path d="M3.01345 73.1878C1.36121 72.9625 0.356732 72.0894 0 70.5686L0.028163 70.2588C0.103265 70.0335 0.187754 69.78 0.28163 69.4984C0.375507 69.1792 0.478772 68.8694 0.591424 68.569C0.704076 68.2499 0.89183 67.9682 1.15469 67.7241C1.21101 67.5552 1.31428 67.3017 1.46448 66.9637C1.63346 66.607 1.9057 66.0813 2.28121 65.3866C2.58161 64.8421 2.8163 64.4103 2.98528 64.0911C3.17304 63.7719 3.32324 63.5278 3.43589 63.3589C3.24814 63.0209 2.98528 62.6923 2.64733 62.3732C2.34692 61.8099 2.08407 61.2748 1.85876 60.7679C1.65223 60.2422 1.49264 59.7728 1.37999 59.3597C1.36121 58.9091 1.28611 58.4491 1.15469 57.9797C1.09836 57.7356 1.04203 57.4916 0.985707 57.2475C0.929381 57.0034 0.901218 56.7499 0.901218 56.4871C0.826116 56.3557 0.760402 56.1867 0.704076 55.9802L0.760402 55.6422C0.854279 55.492 0.873055 55.2948 0.816728 55.0508C0.779178 54.7879 0.722852 54.5251 0.64775 54.2622C0.591424 54.0181 0.535098 53.7647 0.478772 53.5018C0.441221 53.2202 0.431833 52.9479 0.450609 52.6851C0.469384 52.4222 0.535098 52.1688 0.64775 51.9247C0.779178 51.6806 0.995094 51.4741 1.2955 51.3051L1.57713 51.1079L1.85876 51.2769C2.06529 51.4083 2.26243 51.521 2.45019 51.6149C2.63794 51.7088 2.82569 51.8026 3.01345 51.8965C3.23875 52.0092 3.46405 52.1312 3.68936 52.2626C3.91466 52.3753 4.15874 52.5067 4.4216 52.6569L4.70323 52.8541L4.67507 53.1638C4.67507 53.2014 4.68445 53.2483 4.70323 53.3047C4.722 53.361 4.75017 53.4079 4.78772 53.4455L5.09751 53.53L5.12567 53.9242V54.2622C5.12567 54.4312 5.13506 54.5532 5.15384 54.6283C5.17261 54.6847 5.21016 54.7504 5.26649 54.8255L5.40731 55.1916C5.40731 55.5295 5.43547 55.8299 5.49179 56.0928C5.54812 56.3557 5.61383 56.6185 5.68894 56.8814C5.78281 57.1442 5.85791 57.4165 5.91424 57.6981C5.97057 57.961 5.97995 58.252 5.9424 58.5712C6.05506 58.5148 6.16771 58.4303 6.28036 58.3177C6.31791 58.2801 6.35546 58.2426 6.39301 58.205C6.44934 58.1675 6.50566 58.1299 6.56199 58.0924L8.5334 55.4169L8.47708 55.0789L9.18115 54.403C9.36891 54.2528 9.54727 54.1026 9.71625 53.9524C9.88523 53.7834 10.026 53.5957 10.1387 53.3892L10.3077 53.1357C11.1526 52.0092 12.2415 51.3145 13.5746 51.0516L14.0534 50.939L14.1942 51.3896C14.2881 51.6524 14.4664 51.8871 14.7293 52.0936C15.0109 52.2814 15.3113 52.4692 15.6305 52.6569L15.9403 52.8541C16.0529 53.0794 16.1093 53.2483 16.1093 53.361C16.1093 53.4736 16.0999 53.5675 16.0811 53.6426L16.2219 54.0087C16.0154 54.5532 15.7901 54.9475 15.546 55.1916C15.3019 55.4169 15.0485 55.6328 14.7856 55.8393C14.5791 56.0083 14.3913 56.1773 14.2223 56.3463C14.0534 56.5152 13.9219 56.703 13.8281 56.9095L13.6028 57.1912C13.1334 57.4352 12.833 57.792 12.7015 58.2614L12.5889 58.6556H12.1664C12.1477 58.6556 12.1007 58.7026 12.0256 58.7965C11.9505 58.8716 11.8379 59.0687 11.6877 59.3879C11.5187 59.6132 11.3966 59.7634 11.3215 59.8385C11.2652 59.8948 11.2183 59.9418 11.1807 59.9793C11.1432 60.0732 11.1056 60.1577 11.0681 60.2328C11.0493 60.3079 11.0211 60.4017 10.9836 60.5144L10.8146 60.7397C10.6456 60.8899 10.5236 61.0401 10.4485 61.1903C10.3734 61.3217 10.2889 61.4813 10.195 61.6691C10.1199 61.8381 10.0354 62.0164 9.94156 62.2042C9.84768 62.3732 9.71625 62.5421 9.54727 62.7111L9.6036 63.0209L9.37829 63.2181C9.22809 63.3495 9.09666 63.5185 8.98401 63.725C8.87136 63.9127 8.75871 64.1099 8.64606 64.3164C8.5334 64.5417 8.41136 64.767 8.27994 64.9923C8.14851 65.2176 7.97953 65.4242 7.773 65.6119C7.64157 65.9499 7.51953 66.2127 7.40688 66.4005C7.313 66.5882 7.14403 66.8135 6.89995 67.0764C6.67464 67.9776 6.13954 68.9445 5.29465 69.9772C5.27588 70.1837 5.21016 70.3902 5.09751 70.5968C5.00363 70.7845 4.90037 70.9629 4.78772 71.1319C4.75017 71.207 4.70323 71.2915 4.6469 71.3853C4.60935 71.4604 4.58119 71.5168 4.56241 71.5543L4.47792 71.8641C4.36527 72.0706 4.24323 72.2396 4.1118 72.371C3.99915 72.5025 3.8865 72.6245 3.77385 72.7372C3.71752 72.7747 3.6612 72.8217 3.60487 72.878C3.56732 72.9343 3.52977 72.9812 3.49222 73.0188L3.01345 73.1878Z" fill="white"/>
<defs>
<clipPath id="clip0_10_7665">
<rect width="44" height="40" fill="white" transform="translate(57)"/>
</clipPath>
</defs>
</svg>
